<svg width="861" height="119" viewBox="0 0 861 119" fill="none" xmlns="http://www.w3.org/2000/svg">
<rect width="861" height="119" rx="8" fill="url(#paint0_linear_1566_175)"/>
<path d="M113.548 57V39.3H120.364C122.148 39.3 123.488 39.708 124.384 40.524C125.28 41.34 125.728 42.54 125.728 44.124C125.728 45.052 125.552 45.84 125.2 46.488C124.848 47.136 124.42 47.636 123.916 47.988C123.412 48.34 122.932 48.54 122.476 48.588C122.94 48.62 123.388 48.74 123.82 48.948C124.252 49.156 124.604 49.484 124.876 49.932C125.156 50.372 125.296 50.968 125.296 51.72C125.296 52.32 125.296 52.92 125.296 53.52C125.296 54.112 125.296 54.708 125.296 55.308C125.296 55.684 125.328 56.032 125.392 56.352C125.456 56.664 125.536 56.88 125.632 57H122.452C122.372 56.856 122.3 56.636 122.236 56.34C122.18 56.036 122.152 55.692 122.152 55.308C122.152 54.764 122.152 54.232 122.152 53.712C122.152 53.184 122.152 52.644 122.152 52.092C122.152 51.364 121.948 50.812 121.54 50.436C121.132 50.06 120.516 49.872 119.692 49.872H115.792L116.632 48.804V57H113.548ZM116.632 48.54L115.792 47.352H119.716C120.236 47.352 120.704 47.232 121.12 46.992C121.536 46.744 121.864 46.4 122.104 45.96C122.352 45.52 122.476 45.004 122.476 44.412C122.476 43.548 122.228 42.9 121.732 42.468C121.236 42.036 120.532 41.82 119.62 41.82H115.708L116.632 40.704V48.54ZM131.669 57H128.501V39.3H134.189C135.549 39.3 136.697 39.56 137.633 40.08C138.577 40.592 139.293 41.292 139.781 42.18C140.277 43.06 140.525 44.044 140.525 45.132C140.525 46.228 140.277 47.232 139.781 48.144C139.285 49.056 138.561 49.788 137.609 50.34C136.665 50.884 135.525 51.156 134.189 51.156H131.669V57ZM131.669 50.148L130.241 48.648H133.841C134.577 48.648 135.205 48.508 135.725 48.228C136.245 47.94 136.641 47.536 136.913 47.016C137.193 46.488 137.333 45.86 137.333 45.132C137.333 44.404 137.197 43.796 136.925 43.308C136.661 42.812 136.269 42.44 135.749 42.192C135.229 41.944 134.593 41.82 133.841 41.82H130.241L131.669 40.248V50.148ZM143.021 57V44.256H146.178V48.492L145.446 48.084C145.526 47.532 145.674 47.012 145.89 46.524C146.106 46.028 146.394 45.596 146.754 45.228C147.114 44.852 147.55 44.56 148.062 44.352C148.574 44.144 149.158 44.04 149.814 44.04C150.334 44.04 150.742 44.08 151.038 44.16C151.342 44.232 151.53 44.292 151.602 44.34L151.026 47.232C150.946 47.176 150.782 47.108 150.534 47.028C150.294 46.94 149.97 46.896 149.562 46.896C148.914 46.896 148.37 47.008 147.93 47.232C147.498 47.448 147.154 47.744 146.898 48.12C146.642 48.488 146.458 48.896 146.346 49.344C146.234 49.784 146.178 50.224 146.178 50.664V57H143.021ZM157.725 57.264C156.773 57.264 155.937 57.116 155.217 56.82C154.497 56.516 153.933 56.08 153.525 55.512C153.117 54.944 152.913 54.26 152.913 53.46C152.913 52.588 153.149 51.872 153.621 51.312C154.101 50.744 154.745 50.308 155.553 50.004C156.361 49.692 157.257 49.492 158.241 49.404C159.697 49.26 160.713 49.124 161.289 48.996C161.873 48.86 162.165 48.644 162.165 48.348C162.165 48.34 162.165 48.336 162.165 48.336C162.165 48.328 162.165 48.324 162.165 48.324C162.165 47.764 161.913 47.332 161.409 47.028C160.905 46.724 160.193 46.572 159.273 46.572C158.305 46.572 157.561 46.744 157.041 47.088C156.529 47.424 156.273 47.96 156.273 48.696H153.153C153.153 47.696 153.417 46.852 153.945 46.164C154.481 45.468 155.213 44.94 156.141 44.58C157.069 44.22 158.121 44.04 159.297 44.04C160.393 44.04 161.397 44.204 162.309 44.532C163.221 44.86 163.953 45.356 164.505 46.02C165.057 46.684 165.333 47.512 165.333 48.504C165.333 48.672 165.333 48.84 165.333 49.008C165.333 49.176 165.333 49.344 165.333 49.512V54.312C165.333 54.616 165.341 54.916 165.357 55.212C165.381 55.5 165.425 55.76 165.489 55.992C165.569 56.248 165.665 56.464 165.777 56.64C165.889 56.816 165.977 56.936 166.041 57H162.921C162.865 56.944 162.785 56.836 162.681 56.676C162.585 56.508 162.497 56.316 162.417 56.1C162.337 55.86 162.277 55.604 162.237 55.332C162.197 55.052 162.177 54.744 162.177 54.408L162.801 54.84C162.561 55.328 162.193 55.756 161.697 56.124C161.209 56.484 160.625 56.764 159.945 56.964C159.265 57.164 158.525 57.264 157.725 57.264ZM158.493 54.78C159.149 54.78 159.757 54.668 160.317 54.444C160.877 54.22 161.329 53.876 161.673 53.412C162.017 52.94 162.189 52.336 162.189 51.6V49.896L162.957 50.76C162.445 50.952 161.829 51.112 161.109 51.24C160.389 51.36 159.661 51.456 158.925 51.528C157.981 51.616 157.269 51.78 156.789 52.02C156.317 52.26 156.081 52.652 156.081 53.196C156.081 53.724 156.281 54.12 156.681 54.384C157.081 54.648 157.685 54.78 158.493 54.78ZM173.556 57.264C172.508 57.264 171.536 57.012 170.64 56.508C169.752 55.996 169.04 55.244 168.504 54.252C167.968 53.26 167.7 52.04 167.7 50.592C167.7 49.184 167.972 47.992 168.516 47.016C169.068 46.04 169.788 45.3 170.676 44.796C171.572 44.292 172.532 44.04 173.556 44.04C174.556 44.04 175.48 44.288 176.328 44.784C177.176 45.272 177.856 45.952 178.368 46.824C178.88 47.696 179.136 48.696 179.136 49.824C179.136 49.856 179.136 49.888 179.136 49.92C179.136 49.952 179.136 49.984 179.136 50.016L177.576 50.052C177.576 50.028 177.576 50.004 177.576 49.98C177.576 49.948 177.576 49.92 177.576 49.896C177.576 49.264 177.416 48.712 177.096 48.24C176.784 47.768 176.376 47.4 175.872 47.136C175.376 46.864 174.848 46.728 174.288 46.728C173.368 46.728 172.584 47.04 171.936 47.664C171.288 48.28 170.964 49.256 170.964 50.592C170.964 51.92 171.288 52.9 171.936 53.532C172.584 54.164 173.368 54.48 174.288 54.48C174.872 54.48 175.412 54.34 175.908 54.06C176.404 53.78 176.804 53.396 177.108 52.908C177.42 52.412 177.576 51.844 177.576 51.204L179.136 51.276C179.136 52.396 178.884 53.412 178.38 54.324C177.884 55.228 177.216 55.944 176.376 56.472C175.536 57 174.596 57.264 173.556 57.264ZM177.576 57V38.244H180.744V57H177.576ZM190.114 57.252C188.77 57.252 187.586 56.972 186.562 56.412C185.538 55.844 184.734 55.06 184.15 54.06C183.574 53.06 183.286 51.916 183.286 50.628C183.286 49.332 183.574 48.192 184.15 47.208C184.734 46.216 185.538 45.44 186.562 44.88C187.586 44.32 188.77 44.04 190.114 44.04C191.458 44.04 192.642 44.32 193.666 44.88C194.69 45.44 195.49 46.216 196.066 47.208C196.65 48.192 196.942 49.332 196.942 50.628C196.942 51.916 196.65 53.06 196.066 54.06C195.49 55.06 194.69 55.844 193.666 56.412C192.642 56.972 191.458 57.252 190.114 57.252ZM190.114 54.672C190.842 54.672 191.478 54.504 192.022 54.168C192.566 53.832 192.99 53.364 193.294 52.764C193.598 52.156 193.75 51.444 193.75 50.628C193.75 49.812 193.598 49.108 193.294 48.516C192.99 47.916 192.566 47.452 192.022 47.124C191.478 46.796 190.842 46.632 190.114 46.632C189.394 46.632 188.758 46.796 188.206 47.124C187.662 47.452 187.238 47.916 186.934 48.516C186.63 49.108 186.478 49.812 186.478 50.628C186.478 51.444 186.63 52.156 186.934 52.764C187.238 53.364 187.662 53.832 188.206 54.168C188.758 54.504 189.394 54.672 190.114 54.672ZM205.517 57V39.3H210.809C211.985 39.3 213.053 39.512 214.013 39.936C214.973 40.352 215.797 40.948 216.485 41.724C217.173 42.5 217.705 43.432 218.081 44.52C218.457 45.6 218.645 46.804 218.645 48.132C218.645 49.46 218.457 50.668 218.081 51.756C217.705 52.836 217.173 53.768 216.485 54.552C215.797 55.336 214.973 55.94 214.013 56.364C213.053 56.788 211.985 57 210.809 57H205.517ZM208.685 56.052L207.257 54.48H210.401C211.361 54.48 212.217 54.224 212.969 53.712C213.729 53.192 214.329 52.46 214.769 51.516C215.209 50.564 215.429 49.436 215.429 48.132C215.429 46.82 215.209 45.692 214.769 44.748C214.329 43.804 213.729 43.08 212.969 42.576C212.217 42.072 211.361 41.82 210.401 41.82H207.257L208.685 40.248V56.052ZM222.455 51.648V49.404H231.371L231.011 50.004C231.011 49.956 231.011 49.904 231.011 49.848C231.011 49.784 231.011 49.732 231.011 49.692C231.011 49.14 230.887 48.624 230.639 48.144C230.391 47.656 230.015 47.264 229.511 46.968C229.007 46.664 228.367 46.512 227.591 46.512C226.823 46.512 226.155 46.676 225.587 47.004C225.027 47.324 224.591 47.788 224.279 48.396C223.975 49.004 223.823 49.732 223.823 50.58C223.823 51.452 223.971 52.204 224.267 52.836C224.563 53.46 224.995 53.94 225.563 54.276C226.139 54.604 226.839 54.768 227.663 54.768C228.223 54.768 228.707 54.716 229.115 54.612C229.523 54.508 229.855 54.368 230.111 54.192C230.375 54.008 230.571 53.812 230.699 53.604C230.835 53.396 230.915 53.188 230.939 52.98H234.083C234.035 53.516 233.855 54.04 233.543 54.552C233.239 55.056 232.811 55.516 232.259 55.932C231.707 56.34 231.035 56.668 230.243 56.916C229.459 57.156 228.563 57.276 227.555 57.276C226.187 57.276 224.991 56.996 223.967 56.436C222.943 55.876 222.143 55.096 221.567 54.096C220.999 53.096 220.715 51.952 220.715 50.664C220.715 49.344 221.003 48.188 221.579 47.196C222.163 46.204 222.971 45.432 224.003 44.88C225.035 44.32 226.219 44.04 227.555 44.04C228.931 44.04 230.119 44.32 231.119 44.88C232.127 45.44 232.903 46.22 233.447 47.22C233.991 48.212 234.263 49.368 234.263 50.688C234.263 50.856 234.259 51.036 234.251 51.228C234.243 51.42 234.231 51.56 234.215 51.648H222.455ZM242.013 57.264C241.253 57.264 240.529 57.18 239.841 57.012C239.161 56.844 238.553 56.592 238.017 56.256C237.489 55.92 237.069 55.504 236.757 55.008C236.453 54.504 236.301 53.924 236.301 53.268C236.301 53.22 236.301 53.172 236.301 53.124C236.301 53.076 236.301 53.032 236.301 52.992H239.445C239.445 53.032 239.445 53.068 239.445 53.1C239.445 53.124 239.445 53.16 239.445 53.208C239.445 53.728 239.681 54.12 240.153 54.384C240.633 54.64 241.285 54.768 242.109 54.768C242.557 54.768 242.977 54.72 243.369 54.624C243.769 54.528 244.089 54.38 244.329 54.18C244.577 53.98 244.701 53.724 244.701 53.412C244.701 52.908 244.441 52.548 243.921 52.332C243.409 52.116 242.601 51.92 241.497 51.744C240.889 51.64 240.289 51.5 239.697 51.324C239.105 51.148 238.565 50.912 238.077 50.616C237.597 50.32 237.209 49.952 236.913 49.512C236.625 49.072 236.481 48.536 236.481 47.904C236.481 47.064 236.729 46.36 237.225 45.792C237.729 45.216 238.401 44.78 239.241 44.484C240.089 44.188 241.021 44.04 242.037 44.04C243.013 44.04 243.921 44.2 244.761 44.52C245.601 44.84 246.277 45.3 246.789 45.9C247.309 46.5 247.569 47.224 247.569 48.072C247.569 48.104 247.569 48.14 247.569 48.18C247.569 48.212 247.569 48.24 247.569 48.264H244.449C244.449 48.24 244.449 48.216 244.449 48.192C244.449 48.168 244.449 48.14 244.449 48.108C244.449 47.74 244.333 47.44 244.101 47.208C243.869 46.976 243.569 46.804 243.201 46.692C242.833 46.58 242.445 46.524 242.037 46.524C241.677 46.524 241.305 46.564 240.921 46.644C240.537 46.716 240.217 46.848 239.961 47.04C239.705 47.224 239.577 47.484 239.577 47.82C239.577 48.14 239.709 48.4 239.973 48.6C240.237 48.8 240.605 48.968 241.077 49.104C241.549 49.232 242.093 49.348 242.709 49.452C243.293 49.548 243.881 49.68 244.473 49.848C245.073 50.016 245.621 50.24 246.117 50.52C246.613 50.8 247.013 51.168 247.317 51.624C247.629 52.072 247.785 52.628 247.785 53.292C247.785 53.996 247.625 54.596 247.305 55.092C246.985 55.588 246.549 56 245.997 56.328C245.453 56.648 244.837 56.884 244.149 57.036C243.461 57.188 242.749 57.264 242.013 57.264ZM250.329 57V44.256H253.449V57H250.329ZM251.901 41.904C251.389 41.904 250.941 41.768 250.557 41.496C250.181 41.216 249.993 40.828 249.993 40.332C249.993 39.844 250.181 39.464 250.557 39.192C250.941 38.92 251.389 38.784 251.901 38.784C252.405 38.784 252.845 38.92 253.221 39.192C253.597 39.464 253.785 39.844 253.785 40.332C253.785 40.828 253.597 41.216 253.221 41.496C252.845 41.768 252.405 41.904 251.901 41.904ZM265.144 55.74C265.896 55.812 266.556 55.952 267.124 56.16C267.692 56.368 268.136 56.676 268.456 57.084C268.776 57.5 268.936 58.052 268.936 58.74C268.936 59.508 268.676 60.172 268.156 60.732C267.636 61.292 266.872 61.724 265.864 62.028C264.864 62.332 263.632 62.484 262.168 62.484C260.04 62.484 258.404 62.176 257.26 61.56C256.116 60.952 255.544 60.124 255.544 59.076C255.544 58.78 255.58 58.512 255.652 58.272C255.724 58.032 255.812 57.832 255.916 57.672L258.808 58.092C258.76 58.156 258.712 58.256 258.664 58.392C258.616 58.536 258.592 58.708 258.592 58.908C258.592 59.404 258.924 59.76 259.588 59.976C260.26 60.2 261.152 60.312 262.264 60.312C263.08 60.312 263.76 60.256 264.304 60.144C264.856 60.032 265.272 59.872 265.552 59.664C265.84 59.456 265.984 59.212 265.984 58.932C265.984 58.516 265.796 58.248 265.42 58.128C265.044 58.008 264.596 57.928 264.076 57.888L259.24 57.444C258.376 57.356 257.664 57.1 257.104 56.676C256.552 56.252 256.276 55.692 256.276 54.996C256.276 54.572 256.388 54.18 256.612 53.82C256.844 53.46 257.108 53.16 257.404 52.92C257.7 52.672 257.952 52.52 258.16 52.464L259.96 53.352C259.792 53.376 259.592 53.484 259.36 53.676C259.136 53.868 259.024 54.096 259.024 54.36C259.024 54.608 259.136 54.816 259.36 54.984C259.584 55.144 260.016 55.256 260.656 55.32L265.144 55.74ZM266.572 44.256H269.404L268.252 49.2C268.036 50.128 267.688 50.96 267.208 51.696C266.728 52.432 266.088 53.012 265.288 53.436C264.488 53.86 263.48 54.072 262.264 54.072C261 54.072 259.908 53.868 258.988 53.46C258.076 53.044 257.372 52.464 256.876 51.72C256.38 50.968 256.132 50.104 256.132 49.128C256.132 48.128 256.384 47.248 256.888 46.488C257.4 45.72 258.1 45.12 258.988 44.688C259.884 44.256 260.896 44.04 262.024 44.04C262.936 44.04 263.756 44.192 264.484 44.496C265.212 44.792 265.792 45.18 266.224 45.66C266.664 46.14 266.9 46.652 266.932 47.196L266.224 47.328L266.572 44.256ZM262.252 51.636C262.868 51.636 263.4 51.536 263.848 51.336C264.296 51.136 264.644 50.848 264.892 50.472C265.14 50.088 265.264 49.624 265.264 49.08C265.264 48.544 265.14 48.084 264.892 47.7C264.644 47.316 264.296 47.024 263.848 46.824C263.4 46.616 262.872 46.512 262.264 46.512C261.672 46.512 261.148 46.616 260.692 46.824C260.236 47.032 259.876 47.332 259.612 47.724C259.356 48.108 259.228 48.568 259.228 49.104C259.228 49.64 259.352 50.1 259.6 50.484C259.856 50.86 260.208 51.148 260.656 51.348C261.112 51.54 261.644 51.636 262.252 51.636ZM280.541 57V51.348C280.541 51.028 280.541 50.748 280.541 50.508C280.541 50.26 280.541 50.036 280.541 49.836C280.541 49.26 280.457 48.744 280.289 48.288C280.129 47.824 279.849 47.46 279.449 47.196C279.057 46.932 278.513 46.8 277.817 46.8C277.209 46.8 276.669 46.948 276.197 47.244C275.725 47.532 275.353 47.932 275.081 48.444C274.817 48.948 274.685 49.532 274.685 50.196L273.617 49.536C273.617 48.472 273.857 47.528 274.337 46.704C274.825 45.872 275.477 45.22 276.293 44.748C277.109 44.276 278.013 44.04 279.005 44.04C280.029 44.04 280.889 44.24 281.585 44.64C282.289 45.04 282.817 45.608 283.169 46.344C283.529 47.08 283.709 47.944 283.709 48.936C283.709 49.32 283.709 49.752 283.709 50.232C283.709 50.712 283.709 51.184 283.709 51.648V57H280.541ZM271.529 57V44.256H274.685V57H271.529Z" fill="white"/>
<path fill-rule="evenodd" clip-rule="evenodd" d="M45.1951 39H40V63.3861H45.1951V58.7805H45.1976C45.2984 50.964 51.4715 44.6099 59.2217 44.2077V39.0142C53.666 39.227 48.6911 41.703 45.1951 45.5453V39ZM60.7812 79.0012C71.401 78.5936 79.8979 69.9168 80 59.2349H74.8039C74.7031 67.0509 68.5307 73.4048 60.7812 73.8077V79.0012ZM59.9999 68.5745C65.308 68.5745 69.611 64.277 69.611 58.9757C69.611 53.6745 65.308 49.377 59.9999 49.377C54.7786 49.377 50.5297 53.5352 50.3923 58.7168H50.3892V58.9066L50.3889 58.9757L50.3892 59.0449V73.7635H55.5843V67.5037C56.9065 68.188 58.408 68.5745 59.9999 68.5745ZM60.0004 54.565C62.4392 54.565 64.4162 56.5395 64.4162 58.9752C64.4162 61.411 62.4392 63.3855 60.0004 63.3855C57.5615 63.3855 55.5845 61.411 55.5845 58.9752C55.5845 56.5395 57.5615 54.565 60.0004 54.565Z" fill="white"/>
<path d="M116.046 78.168C115.253 78.168 114.576 78.0187 114.016 77.72C113.456 77.412 112.98 76.992 112.588 76.46L113.456 75.732C113.801 76.1893 114.184 76.5393 114.604 76.782C115.024 77.0153 115.519 77.132 116.088 77.132C116.788 77.132 117.32 76.964 117.684 76.628C118.057 76.292 118.244 75.844 118.244 75.284C118.244 74.8173 118.104 74.458 117.824 74.206C117.544 73.954 117.082 73.7533 116.438 73.604L115.64 73.422C114.744 73.2167 114.058 72.9087 113.582 72.498C113.115 72.078 112.882 71.49 112.882 70.734C112.882 70.3047 112.961 69.922 113.12 69.586C113.279 69.25 113.498 68.97 113.778 68.746C114.067 68.522 114.408 68.354 114.8 68.242C115.201 68.1207 115.64 68.06 116.116 68.06C116.853 68.06 117.483 68.1953 118.006 68.466C118.538 68.7367 118.986 69.1333 119.35 69.656L118.468 70.3C118.197 69.9267 117.871 69.6327 117.488 69.418C117.105 69.2033 116.629 69.096 116.06 69.096C115.435 69.096 114.94 69.2313 114.576 69.502C114.221 69.7633 114.044 70.16 114.044 70.692C114.044 71.1587 114.193 71.5133 114.492 71.756C114.8 71.9893 115.262 72.176 115.878 72.316L116.676 72.498C117.637 72.7127 118.333 73.0393 118.762 73.478C119.191 73.9167 119.406 74.5 119.406 75.228C119.406 75.676 119.327 76.082 119.168 76.446C119.019 76.81 118.799 77.118 118.51 77.37C118.221 77.622 117.866 77.818 117.446 77.958C117.035 78.098 116.569 78.168 116.046 78.168ZM124.321 78.168C123.826 78.168 123.378 78.0793 122.977 77.902C122.585 77.7247 122.244 77.4727 121.955 77.146C121.675 76.81 121.455 76.4133 121.297 75.956C121.147 75.4893 121.073 74.9667 121.073 74.388C121.073 73.8187 121.147 73.3007 121.297 72.834C121.455 72.3673 121.675 71.9707 121.955 71.644C122.244 71.308 122.585 71.0513 122.977 70.874C123.378 70.6967 123.826 70.608 124.321 70.608C124.806 70.608 125.24 70.6967 125.623 70.874C126.005 71.0513 126.332 71.2987 126.603 71.616C126.873 71.924 127.079 72.2927 127.219 72.722C127.368 73.1513 127.443 73.6227 127.443 74.136V74.668H122.249V75.004C122.249 75.312 122.295 75.6013 122.389 75.872C122.491 76.1333 122.631 76.362 122.809 76.558C122.995 76.754 123.219 76.908 123.481 77.02C123.751 77.132 124.055 77.188 124.391 77.188C124.848 77.188 125.245 77.0807 125.581 76.866C125.926 76.6513 126.192 76.3433 126.379 75.942L127.177 76.516C126.943 77.0107 126.579 77.412 126.085 77.72C125.59 78.0187 125.002 78.168 124.321 78.168ZM124.321 71.546C124.013 71.546 123.733 71.602 123.481 71.714C123.229 71.8167 123.009 71.966 122.823 72.162C122.645 72.358 122.505 72.5913 122.403 72.862C122.3 73.1233 122.249 73.4127 122.249 73.73V73.828H126.239V73.674C126.239 73.03 126.061 72.5167 125.707 72.134C125.361 71.742 124.899 71.546 124.321 71.546ZM129.568 78V70.776H130.688V71.952H130.744C130.922 71.5413 131.169 71.2147 131.486 70.972C131.813 70.7293 132.247 70.608 132.788 70.608C133.535 70.608 134.123 70.8507 134.552 71.336C134.991 71.812 135.21 72.4887 135.21 73.366V78H134.09V73.562C134.09 72.2647 133.544 71.616 132.452 71.616C132.228 71.616 132.009 71.644 131.794 71.7C131.589 71.756 131.402 71.84 131.234 71.952C131.066 72.064 130.931 72.2087 130.828 72.386C130.735 72.554 130.688 72.7547 130.688 72.988V78H129.568ZM138.365 69.082C138.123 69.082 137.945 69.026 137.833 68.914C137.731 68.7927 137.679 68.6387 137.679 68.452V68.27C137.679 68.0833 137.731 67.934 137.833 67.822C137.945 67.7007 138.123 67.64 138.365 67.64C138.608 67.64 138.781 67.7007 138.883 67.822C138.995 67.934 139.051 68.0833 139.051 68.27V68.452C139.051 68.6387 138.995 68.7927 138.883 68.914C138.781 69.026 138.608 69.082 138.365 69.082ZM137.805 70.776H138.925V78H137.805V70.776ZM144.315 78.168C143.83 78.168 143.387 78.0793 142.985 77.902C142.584 77.7247 142.239 77.4727 141.949 77.146C141.669 76.81 141.45 76.4133 141.291 75.956C141.133 75.4893 141.053 74.9667 141.053 74.388C141.053 73.8187 141.133 73.3007 141.291 72.834C141.45 72.3673 141.669 71.9707 141.949 71.644C142.239 71.308 142.584 71.0513 142.985 70.874C143.387 70.6967 143.83 70.608 144.315 70.608C144.801 70.608 145.239 70.6967 145.631 70.874C146.033 71.0513 146.378 71.308 146.667 71.644C146.957 71.9707 147.181 72.3673 147.339 72.834C147.498 73.3007 147.577 73.8187 147.577 74.388C147.577 74.9667 147.498 75.4893 147.339 75.956C147.181 76.4133 146.957 76.81 146.667 77.146C146.378 77.4727 146.033 77.7247 145.631 77.902C145.239 78.0793 144.801 78.168 144.315 78.168ZM144.315 77.174C144.922 77.174 145.417 76.9873 145.799 76.614C146.182 76.2407 146.373 75.6713 146.373 74.906V73.87C146.373 73.1047 146.182 72.5353 145.799 72.162C145.417 71.7887 144.922 71.602 144.315 71.602C143.709 71.602 143.214 71.7887 142.831 72.162C142.449 72.5353 142.257 73.1047 142.257 73.87V74.906C142.257 75.6713 142.449 76.2407 142.831 76.614C143.214 76.9873 143.709 77.174 144.315 77.174ZM149.699 78V70.776H150.819V72.106H150.889C151.02 71.7607 151.253 71.4527 151.589 71.182C151.925 70.9113 152.387 70.776 152.975 70.776H153.409V71.896H152.751C152.145 71.896 151.669 72.0127 151.323 72.246C150.987 72.47 150.819 72.7547 150.819 73.1V78H149.699ZM158.821 78V68.228H162.713C163.59 68.228 164.262 68.48 164.729 68.984C165.205 69.4787 165.443 70.16 165.443 71.028C165.443 71.896 165.205 72.582 164.729 73.086C164.262 73.5807 163.59 73.828 162.713 73.828H159.997V78H158.821ZM159.997 72.792H162.713C163.179 72.792 163.539 72.6707 163.791 72.428C164.052 72.1853 164.183 71.84 164.183 71.392V70.664C164.183 70.216 164.052 69.8707 163.791 69.628C163.539 69.3853 163.179 69.264 162.713 69.264H159.997V72.792ZM167.342 78V70.776H168.462V72.106H168.532C168.663 71.7607 168.896 71.4527 169.232 71.182C169.568 70.9113 170.03 70.776 170.618 70.776H171.052V71.896H170.394C169.787 71.896 169.311 72.0127 168.966 72.246C168.63 72.47 168.462 72.7547 168.462 73.1V78H167.342ZM175.424 78.168C174.939 78.168 174.496 78.0793 174.094 77.902C173.693 77.7247 173.348 77.4727 173.058 77.146C172.778 76.81 172.559 76.4133 172.4 75.956C172.242 75.4893 172.162 74.9667 172.162 74.388C172.162 73.8187 172.242 73.3007 172.4 72.834C172.559 72.3673 172.778 71.9707 173.058 71.644C173.348 71.308 173.693 71.0513 174.094 70.874C174.496 70.6967 174.939 70.608 175.424 70.608C175.91 70.608 176.348 70.6967 176.74 70.874C177.142 71.0513 177.487 71.308 177.776 71.644C178.066 71.9707 178.29 72.3673 178.448 72.834C178.607 73.3007 178.686 73.8187 178.686 74.388C178.686 74.9667 178.607 75.4893 178.448 75.956C178.29 76.4133 178.066 76.81 177.776 77.146C177.487 77.4727 177.142 77.7247 176.74 77.902C176.348 78.0793 175.91 78.168 175.424 78.168ZM175.424 77.174C176.031 77.174 176.526 76.9873 176.908 76.614C177.291 76.2407 177.482 75.6713 177.482 74.906V73.87C177.482 73.1047 177.291 72.5353 176.908 72.162C176.526 71.7887 176.031 71.602 175.424 71.602C174.818 71.602 174.323 71.7887 173.94 72.162C173.558 72.5353 173.366 73.1047 173.366 73.87V74.906C173.366 75.6713 173.558 76.2407 173.94 76.614C174.323 76.9873 174.818 77.174 175.424 77.174ZM185.428 76.824H185.372C184.934 77.72 184.229 78.168 183.258 78.168C182.81 78.168 182.404 78.0793 182.04 77.902C181.676 77.7247 181.364 77.4727 181.102 77.146C180.85 76.8193 180.654 76.4227 180.514 75.956C180.384 75.4893 180.318 74.9667 180.318 74.388C180.318 73.8093 180.384 73.2867 180.514 72.82C180.654 72.3533 180.85 71.9567 181.102 71.63C181.364 71.3033 181.676 71.0513 182.04 70.874C182.404 70.6967 182.81 70.608 183.258 70.608C183.762 70.608 184.192 70.72 184.546 70.944C184.91 71.1587 185.186 71.4947 185.372 71.952H185.428V67.64H186.548V78H185.428V76.824ZM183.566 77.16C183.818 77.16 184.056 77.1273 184.28 77.062C184.514 76.9967 184.714 76.9033 184.882 76.782C185.05 76.6513 185.181 76.4973 185.274 76.32C185.377 76.1333 185.428 75.9233 185.428 75.69V73.002C185.428 72.806 185.377 72.624 185.274 72.456C185.181 72.2787 185.05 72.1293 184.882 72.008C184.714 71.8867 184.514 71.7933 184.28 71.728C184.056 71.6533 183.818 71.616 183.566 71.616C182.932 71.616 182.432 71.8167 182.068 72.218C181.704 72.61 181.522 73.128 181.522 73.772V75.004C181.522 75.648 181.704 76.1707 182.068 76.572C182.432 76.964 182.932 77.16 183.566 77.16ZM193.661 76.824H193.605C193.531 76.992 193.437 77.16 193.325 77.328C193.223 77.4867 193.092 77.6313 192.933 77.762C192.775 77.8833 192.583 77.9813 192.359 78.056C192.135 78.1307 191.874 78.168 191.575 78.168C190.829 78.168 190.236 77.93 189.797 77.454C189.359 76.9687 189.139 76.2873 189.139 75.41V70.776H190.259V75.214C190.259 76.5113 190.81 77.16 191.911 77.16C192.135 77.16 192.35 77.132 192.555 77.076C192.77 77.02 192.957 76.936 193.115 76.824C193.283 76.712 193.414 76.572 193.507 76.404C193.61 76.2267 193.661 76.0167 193.661 75.774V70.776H194.781V78H193.661V76.824ZM200.134 78.168C199.63 78.168 199.178 78.0793 198.776 77.902C198.375 77.7247 198.034 77.4727 197.754 77.146C197.484 76.8193 197.274 76.4227 197.124 75.956C196.984 75.4893 196.914 74.9667 196.914 74.388C196.914 73.8093 196.984 73.2867 197.124 72.82C197.274 72.3533 197.484 71.9567 197.754 71.63C198.034 71.3033 198.375 71.0513 198.776 70.874C199.178 70.6967 199.63 70.608 200.134 70.608C200.853 70.608 201.427 70.7667 201.856 71.084C202.295 71.392 202.622 71.798 202.836 72.302L201.898 72.778C201.768 72.4047 201.553 72.1153 201.254 71.91C200.956 71.7047 200.582 71.602 200.134 71.602C199.798 71.602 199.504 71.658 199.252 71.77C199 71.8727 198.79 72.022 198.622 72.218C198.454 72.4047 198.328 72.6333 198.244 72.904C198.16 73.1653 198.118 73.4547 198.118 73.772V75.004C198.118 75.6387 198.286 76.1613 198.622 76.572C198.968 76.9733 199.472 77.174 200.134 77.174C201.04 77.174 201.693 76.754 202.094 75.914L202.906 76.46C202.673 76.9827 202.323 77.398 201.856 77.706C201.399 78.014 200.825 78.168 200.134 78.168ZM206.363 78C205.971 78 205.673 77.8927 205.467 77.678C205.271 77.454 205.173 77.1647 205.173 76.81V71.756H203.983V70.776H204.655C204.898 70.776 205.061 70.7293 205.145 70.636C205.239 70.5333 205.285 70.3607 205.285 70.118V68.774H206.293V70.776H207.875V71.756H206.293V77.02H207.763V78H206.363ZM213.656 68.228H216.932C217.539 68.228 218.09 68.3307 218.584 68.536C219.079 68.7413 219.499 69.0493 219.844 69.46C220.199 69.8613 220.47 70.37 220.656 70.986C220.843 71.5927 220.936 72.302 220.936 73.114C220.936 73.926 220.843 74.64 220.656 75.256C220.47 75.8627 220.199 76.3713 219.844 76.782C219.499 77.1833 219.079 77.4867 218.584 77.692C218.09 77.8973 217.539 78 216.932 78H213.656V68.228ZM216.932 76.964C217.334 76.964 217.702 76.8987 218.038 76.768C218.374 76.628 218.664 76.4273 218.906 76.166C219.149 75.9047 219.336 75.5873 219.466 75.214C219.606 74.8313 219.676 74.3973 219.676 73.912V72.316C219.676 71.8307 219.606 71.4013 219.466 71.028C219.336 70.6453 219.149 70.3233 218.906 70.062C218.664 69.8007 218.374 69.6047 218.038 69.474C217.702 69.334 217.334 69.264 216.932 69.264H214.832V76.964H216.932ZM225.933 78.168C225.438 78.168 224.99 78.0793 224.589 77.902C224.197 77.7247 223.856 77.4727 223.567 77.146C223.287 76.81 223.068 76.4133 222.909 75.956C222.76 75.4893 222.685 74.9667 222.685 74.388C222.685 73.8187 222.76 73.3007 222.909 72.834C223.068 72.3673 223.287 71.9707 223.567 71.644C223.856 71.308 224.197 71.0513 224.589 70.874C224.99 70.6967 225.438 70.608 225.933 70.608C226.418 70.608 226.852 70.6967 227.235 70.874C227.618 71.0513 227.944 71.2987 228.215 71.616C228.486 71.924 228.691 72.2927 228.831 72.722C228.98 73.1513 229.055 73.6227 229.055 74.136V74.668H223.861V75.004C223.861 75.312 223.908 75.6013 224.001 75.872C224.104 76.1333 224.244 76.362 224.421 76.558C224.608 76.754 224.832 76.908 225.093 77.02C225.364 77.132 225.667 77.188 226.003 77.188C226.46 77.188 226.857 77.0807 227.193 76.866C227.538 76.6513 227.804 76.3433 227.991 75.942L228.789 76.516C228.556 77.0107 228.192 77.412 227.697 77.72C227.202 78.0187 226.614 78.168 225.933 78.168ZM225.933 71.546C225.625 71.546 225.345 71.602 225.093 71.714C224.841 71.8167 224.622 71.966 224.435 72.162C224.258 72.358 224.118 72.5913 224.015 72.862C223.912 73.1233 223.861 73.4127 223.861 73.73V73.828H227.851V73.674C227.851 73.03 227.674 72.5167 227.319 72.134C226.974 71.742 226.512 71.546 225.933 71.546ZM233.35 78.168C232.678 78.168 232.114 78.042 231.656 77.79C231.208 77.5287 230.821 77.1833 230.494 76.754L231.292 76.11C231.572 76.4647 231.885 76.74 232.23 76.936C232.576 77.1227 232.977 77.216 233.434 77.216C233.91 77.216 234.279 77.1133 234.54 76.908C234.811 76.7027 234.946 76.4133 234.946 76.04C234.946 75.76 234.853 75.522 234.666 75.326C234.489 75.1207 234.162 74.9807 233.686 74.906L233.112 74.822C232.776 74.7753 232.468 74.7053 232.188 74.612C231.908 74.5093 231.661 74.3787 231.446 74.22C231.241 74.052 231.078 73.8467 230.956 73.604C230.844 73.3613 230.788 73.072 230.788 72.736C230.788 72.3813 230.854 72.0733 230.984 71.812C231.115 71.5413 231.292 71.3173 231.516 71.14C231.75 70.9627 232.025 70.832 232.342 70.748C232.66 70.6547 233 70.608 233.364 70.608C233.952 70.608 234.442 70.7107 234.834 70.916C235.236 71.1213 235.586 71.406 235.884 71.77L235.142 72.442C234.984 72.218 234.75 72.0173 234.442 71.84C234.134 71.6533 233.747 71.56 233.28 71.56C232.814 71.56 232.459 71.6627 232.216 71.868C231.983 72.064 231.866 72.3347 231.866 72.68C231.866 73.0347 231.983 73.2913 232.216 73.45C232.459 73.6087 232.804 73.7253 233.252 73.8L233.812 73.884C234.615 74.0053 235.184 74.2387 235.52 74.584C235.856 74.92 236.024 75.3633 236.024 75.914C236.024 76.614 235.786 77.1647 235.31 77.566C234.834 77.9673 234.181 78.168 233.35 78.168ZM238.843 69.082C238.6 69.082 238.423 69.026 238.311 68.914C238.208 68.7927 238.157 68.6387 238.157 68.452V68.27C238.157 68.0833 238.208 67.934 238.311 67.822C238.423 67.7007 238.6 67.64 238.843 67.64C239.085 67.64 239.258 67.7007 239.361 67.822C239.473 67.934 239.529 68.0833 239.529 68.27V68.452C239.529 68.6387 239.473 68.7927 239.361 68.914C239.258 69.026 239.085 69.082 238.843 69.082ZM238.283 70.776H239.403V78H238.283V70.776ZM248.153 78.798C248.153 79.5447 247.859 80.0907 247.271 80.436C246.692 80.7907 245.819 80.968 244.653 80.968C243.523 80.968 242.711 80.814 242.217 80.506C241.722 80.198 241.475 79.7593 241.475 79.19C241.475 78.798 241.577 78.49 241.783 78.266C241.988 78.0513 242.268 77.8927 242.623 77.79V77.636C242.193 77.4307 241.979 77.0947 241.979 76.628C241.979 76.264 242.095 75.9887 242.329 75.802C242.562 75.606 242.861 75.4613 243.225 75.368V75.312C242.795 75.1067 242.459 74.8127 242.217 74.43C241.983 74.0473 241.867 73.604 241.867 73.1C241.867 72.736 241.932 72.4 242.063 72.092C242.193 71.784 242.375 71.5227 242.609 71.308C242.851 71.084 243.136 70.9113 243.463 70.79C243.799 70.6687 244.172 70.608 244.583 70.608C245.096 70.608 245.553 70.7013 245.955 70.888V70.762C245.955 70.482 246.02 70.2533 246.151 70.076C246.281 69.8893 246.496 69.796 246.795 69.796H247.873V70.776H246.501V71.238C246.762 71.462 246.963 71.7327 247.103 72.05C247.252 72.358 247.327 72.708 247.327 73.1C247.327 73.464 247.261 73.8 247.131 74.108C247 74.416 246.813 74.682 246.571 74.906C246.337 75.1207 246.053 75.2887 245.717 75.41C245.381 75.5313 245.007 75.592 244.597 75.592C244.363 75.592 244.13 75.5687 243.897 75.522C243.654 75.5873 243.435 75.6853 243.239 75.816C243.043 75.9373 242.945 76.11 242.945 76.334C242.945 76.5487 243.047 76.6933 243.253 76.768C243.458 76.8427 243.724 76.88 244.051 76.88H245.591C246.487 76.88 247.135 77.0527 247.537 77.398C247.947 77.734 248.153 78.2007 248.153 78.798ZM247.103 78.882C247.103 78.5927 246.991 78.3593 246.767 78.182C246.552 78.014 246.165 77.93 245.605 77.93H243.197C242.749 78.1353 242.525 78.462 242.525 78.91C242.525 79.2273 242.641 79.498 242.875 79.722C243.117 79.946 243.523 80.058 244.093 80.058H245.129C245.754 80.058 246.239 79.96 246.585 79.764C246.93 79.568 247.103 79.274 247.103 78.882ZM244.597 74.696C245.073 74.696 245.451 74.584 245.731 74.36C246.011 74.1267 246.151 73.772 246.151 73.296V72.904C246.151 72.428 246.011 72.078 245.731 71.854C245.451 71.6207 245.073 71.504 244.597 71.504C244.121 71.504 243.743 71.6207 243.463 71.854C243.183 72.078 243.043 72.428 243.043 72.904V73.296C243.043 73.772 243.183 74.1267 243.463 74.36C243.743 74.584 244.121 74.696 244.597 74.696ZM249.739 78V70.776H250.859V71.952H250.915C251.093 71.5413 251.34 71.2147 251.657 70.972C251.984 70.7293 252.418 70.608 252.959 70.608C253.706 70.608 254.294 70.8507 254.723 71.336C255.162 71.812 255.381 72.4887 255.381 73.366V78H254.261V73.562C254.261 72.2647 253.715 71.616 252.623 71.616C252.399 71.616 252.18 71.644 251.965 71.7C251.76 71.756 251.573 71.84 251.405 71.952C251.237 72.064 251.102 72.2087 250.999 72.386C250.906 72.554 250.859 72.7547 250.859 72.988V78H249.739ZM260.692 78.168C260.198 78.168 259.75 78.0793 259.348 77.902C258.956 77.7247 258.616 77.4727 258.326 77.146C258.046 76.81 257.827 76.4133 257.668 75.956C257.519 75.4893 257.444 74.9667 257.444 74.388C257.444 73.8187 257.519 73.3007 257.668 72.834C257.827 72.3673 258.046 71.9707 258.326 71.644C258.616 71.308 258.956 71.0513 259.348 70.874C259.75 70.6967 260.198 70.608 260.692 70.608C261.178 70.608 261.612 70.6967 261.994 70.874C262.377 71.0513 262.704 71.2987 262.974 71.616C263.245 71.924 263.45 72.2927 263.59 72.722C263.74 73.1513 263.814 73.6227 263.814 74.136V74.668H258.62V75.004C258.62 75.312 258.667 75.6013 258.76 75.872C258.863 76.1333 259.003 76.362 259.18 76.558C259.367 76.754 259.591 76.908 259.852 77.02C260.123 77.132 260.426 77.188 260.762 77.188C261.22 77.188 261.616 77.0807 261.952 76.866C262.298 76.6513 262.564 76.3433 262.75 75.942L263.548 76.516C263.315 77.0107 262.951 77.412 262.456 77.72C261.962 78.0187 261.374 78.168 260.692 78.168ZM260.692 71.546C260.384 71.546 260.104 71.602 259.852 71.714C259.6 71.8167 259.381 71.966 259.194 72.162C259.017 72.358 258.877 72.5913 258.774 72.862C258.672 73.1233 258.62 73.4127 258.62 73.73V73.828H262.61V73.674C262.61 73.03 262.433 72.5167 262.078 72.134C261.733 71.742 261.271 71.546 260.692 71.546ZM265.94 78V70.776H267.06V72.106H267.13C267.261 71.7607 267.494 71.4527 267.83 71.182C268.166 70.9113 268.628 70.776 269.216 70.776H269.65V71.896H268.992C268.385 71.896 267.909 72.0127 267.564 72.246C267.228 72.47 267.06 72.7547 267.06 73.1V78H265.94Z" fill="white"/>
<defs>
<linearGradient id="paint0_linear_1566_175" x1="-5.45021e-06" y1="59.5014" x2="861" y2="59.5013" gradientUnits="userSpaceOnUse">
<stop stop-color="#021826"/>
<stop offset="1" stop-color="#00080D"/>
</linearGradient>
</defs>
</svg>
