<svg width="861" height="119" viewBox="0 0 861 119" fill="none" xmlns="http://www.w3.org/2000/svg">
<rect width="861" height="119" rx="4" fill="url(#paint0_linear_104_330)"/>
<path d="M122.811 59.6347V39.7341H130.9C132.992 39.7341 134.552 40.2108 135.58 41.1642C136.617 42.1086 137.136 43.4713 137.136 45.2523C137.136 46.2777 136.937 47.1546 136.541 47.8832C136.153 48.6028 135.67 49.1604 135.093 49.5562C134.525 49.952 133.975 50.1723 133.443 50.2173C133.993 50.2533 134.512 50.3927 134.999 50.6355C135.495 50.8694 135.9 51.2427 136.216 51.7554C136.532 52.2681 136.689 52.9562 136.689 53.8196C136.689 54.4583 136.689 55.0879 136.689 55.7085C136.689 56.3291 136.689 56.9633 136.689 57.6109C136.689 58.0516 136.721 58.4609 136.784 58.8386C136.856 59.2074 136.96 59.4728 137.095 59.6347H132.888C132.771 59.4548 132.677 59.1849 132.604 58.8251C132.532 58.4564 132.496 58.0516 132.496 57.6109C132.496 57.0352 132.496 56.4865 132.496 55.9649C132.496 55.4342 132.496 54.881 132.496 54.3054C132.496 53.5228 132.293 52.9202 131.887 52.4974C131.482 52.0657 130.832 51.8498 129.94 51.8498H125.8L126.923 50.5141V59.6347H122.811ZM126.923 50.1363L125.8 48.6118H129.994C130.535 48.6118 131.017 48.4903 131.441 48.2475C131.865 48.0046 132.199 47.6583 132.442 47.2086C132.695 46.7589 132.821 46.2327 132.821 45.63C132.821 44.7845 132.564 44.1279 132.05 43.6602C131.545 43.1925 130.832 42.9586 129.913 42.9586H125.706L126.923 41.596V50.1363Z" fill="white"/>
<path d="M144.681 59.9315C143.635 59.9315 142.702 59.7651 141.881 59.4323C141.07 59.0995 140.434 58.6183 139.974 57.9886C139.514 57.359 139.284 56.5945 139.284 55.695C139.284 54.6786 139.564 53.8511 140.123 53.2125C140.682 52.5739 141.421 52.0882 142.341 51.7554C143.27 51.4136 144.275 51.1887 145.358 51.0808C146.936 50.9279 148.022 50.7885 148.618 50.6625C149.222 50.5366 149.524 50.3162 149.524 50.0014C149.524 49.9924 149.524 49.9834 149.524 49.9744C149.524 49.4438 149.267 49.0255 148.753 48.7197C148.248 48.4139 147.54 48.261 146.629 48.261C145.664 48.261 144.925 48.4364 144.411 48.7872C143.906 49.1289 143.653 49.6551 143.653 50.3657H139.528C139.528 49.2144 139.839 48.243 140.461 47.4515C141.092 46.6599 141.944 46.0618 143.018 45.657C144.091 45.2433 145.304 45.0364 146.656 45.0364C147.919 45.0364 149.087 45.2298 150.16 45.6165C151.233 45.9943 152.094 46.5655 152.743 47.33C153.402 48.0946 153.731 49.066 153.731 50.2443C153.731 50.4332 153.731 50.6221 153.731 50.8109C153.731 50.9908 153.731 51.1752 153.731 51.3641V56.4371C153.731 56.8059 153.74 57.1611 153.758 57.5029C153.785 57.8357 153.839 58.1416 153.92 58.4204C154.01 58.7352 154.123 58.996 154.258 59.2029C154.394 59.4098 154.506 59.5537 154.596 59.6347H150.471C150.408 59.5717 150.308 59.4413 150.173 59.2434C150.047 59.0455 149.939 58.8162 149.849 58.5553C149.74 58.2405 149.659 57.9257 149.605 57.6109C149.56 57.2871 149.537 56.9093 149.537 56.4776L150.403 57.0712C150.151 57.6648 149.74 58.1775 149.172 58.6093C148.613 59.032 147.946 59.3603 147.17 59.5942C146.404 59.819 145.574 59.9315 144.681 59.9315ZM145.804 56.8014C146.462 56.8014 147.076 56.6844 147.644 56.4506C148.221 56.2077 148.69 55.8299 149.05 55.3172C149.411 54.8046 149.592 54.1345 149.592 53.3069V51.8633L150.633 52.8752C150.038 53.0911 149.348 53.271 148.563 53.4149C147.788 53.5498 147.012 53.6577 146.237 53.7387C145.317 53.8286 144.627 53.986 144.167 54.2109C143.716 54.4268 143.491 54.7956 143.491 55.3172C143.491 55.8119 143.685 56.1852 144.073 56.4371C144.46 56.6799 145.037 56.8014 145.804 56.8014Z" fill="white"/>
<path d="M158.544 59.6347V48.5443H155.555V45.3062H158.544V44.3213C158.544 43.3679 158.671 42.5539 158.923 41.8793C159.185 41.1957 159.536 40.629 159.978 40.1793C160.42 39.7206 160.916 39.3608 161.466 39.0999C162.025 38.8301 162.598 38.6412 163.184 38.5333C163.779 38.4164 164.356 38.3579 164.915 38.3579C165.511 38.3579 165.953 38.3939 166.241 38.4658C166.539 38.5288 166.737 38.5828 166.836 38.6277V41.8793C166.728 41.8433 166.534 41.8028 166.255 41.7579C165.984 41.7129 165.691 41.6904 165.375 41.6904C164.852 41.6904 164.419 41.7579 164.077 41.8928C163.734 42.0277 163.464 42.2256 163.265 42.4864C163.067 42.7383 162.927 43.0396 162.846 43.3904C162.765 43.7322 162.724 44.1055 162.724 44.5102V45.3062H166.579V48.5443H162.724V59.6347H158.544Z" fill="white"/>
<path d="M173.029 59.9315C171.983 59.9315 171.05 59.7651 170.229 59.4323C169.418 59.0995 168.782 58.6183 168.322 57.9886C167.862 57.359 167.632 56.5945 167.632 55.695C167.632 54.6786 167.912 53.8511 168.471 53.2125C169.03 52.5739 169.769 52.0882 170.689 51.7554C171.618 51.4136 172.624 51.1887 173.706 51.0808C175.284 50.9279 176.371 50.7885 176.966 50.6625C177.57 50.5366 177.872 50.3162 177.872 50.0014C177.872 49.9924 177.872 49.9834 177.872 49.9744C177.872 49.4438 177.615 49.0255 177.101 48.7197C176.596 48.4139 175.888 48.261 174.977 48.261C174.012 48.261 173.273 48.4364 172.759 48.7872C172.254 49.1289 172.001 49.6551 172.001 50.3657H167.876C167.876 49.2144 168.187 48.243 168.809 47.4515C169.44 46.6599 170.293 46.0618 171.366 45.657C172.439 45.2433 173.652 45.0364 175.004 45.0364C176.267 45.0364 177.435 45.2298 178.508 45.6165C179.581 45.9943 180.442 46.5655 181.091 47.33C181.75 48.0946 182.079 49.066 182.079 50.2443C182.079 50.4332 182.079 50.6221 182.079 50.8109C182.079 50.9908 182.079 51.1752 182.079 51.3641V56.4371C182.079 56.8059 182.088 57.1611 182.106 57.5029C182.133 57.8357 182.187 58.1416 182.268 58.4204C182.358 58.7352 182.471 58.996 182.606 59.2029C182.742 59.4098 182.854 59.5537 182.945 59.6347H178.819C178.756 59.5717 178.657 59.4413 178.521 59.2434C178.395 59.0455 178.287 58.8162 178.197 58.5553C178.088 58.2405 178.007 57.9257 177.953 57.6109C177.908 57.2871 177.886 56.9093 177.886 56.4776L178.751 57.0712C178.499 57.6648 178.088 58.1775 177.52 58.6093C176.961 59.032 176.294 59.3603 175.518 59.5942C174.752 59.819 173.922 59.9315 173.029 59.9315ZM174.152 56.8014C174.81 56.8014 175.424 56.6844 175.992 56.4506C176.569 56.2077 177.038 55.8299 177.399 55.3172C177.759 54.8046 177.94 54.1345 177.94 53.3069V51.8633L178.981 52.8752C178.386 53.0911 177.696 53.271 176.912 53.4149C176.136 53.5498 175.361 53.6577 174.585 53.7387C173.665 53.8286 172.975 53.986 172.515 54.2109C172.065 54.4268 171.839 54.7956 171.839 55.3172C171.839 55.8119 172.033 56.1852 172.421 56.4371C172.808 56.6799 173.386 56.8014 174.152 56.8014Z" fill="white"/>
<path d="M186.757 53.7252V50.9594H196.28L195.874 51.6609C195.874 51.589 195.874 51.5215 195.874 51.4586C195.874 51.3866 195.874 51.3191 195.874 51.2562C195.874 50.7435 195.753 50.2533 195.509 49.7856C195.266 49.3088 194.887 48.9221 194.373 48.6252C193.868 48.3194 193.219 48.1665 192.425 48.1665C191.631 48.1665 190.946 48.3374 190.369 48.6792C189.801 49.012 189.363 49.4932 189.057 50.1229C188.759 50.7525 188.61 51.5125 188.61 52.403C188.61 53.3204 188.755 54.1075 189.043 54.7641C189.341 55.4117 189.778 55.9109 190.355 56.2617C190.941 56.6125 191.667 56.7879 192.533 56.7879C193.092 56.7879 193.575 56.7384 193.981 56.6395C194.386 56.5315 194.715 56.3966 194.968 56.2347C195.23 56.0728 195.428 55.8929 195.563 55.695C195.698 55.4971 195.78 55.3038 195.807 55.1149H199.946C199.892 55.7175 199.684 56.3111 199.324 56.8958C198.963 57.4715 198.462 57.9931 197.822 58.4609C197.182 58.9196 196.402 59.2839 195.482 59.5537C194.571 59.8235 193.53 59.9585 192.357 59.9585C190.77 59.9585 189.386 59.6437 188.205 59.014C187.023 58.3754 186.108 57.4984 185.459 56.3831C184.809 55.2588 184.485 53.9636 184.485 52.4974C184.485 51.0133 184.814 49.7136 185.472 48.5983C186.139 47.4739 187.064 46.6015 188.245 45.9808C189.436 45.3512 190.811 45.0364 192.371 45.0364C193.967 45.0364 195.347 45.3557 196.51 45.9943C197.673 46.6239 198.571 47.5099 199.202 48.6522C199.833 49.7856 200.149 51.1078 200.149 52.6189C200.149 52.8437 200.144 53.0596 200.135 53.2665C200.126 53.4733 200.113 53.6263 200.095 53.7252H186.757Z" fill="white"/>
<path d="M207.111 38.5468V59.6347H202.972V38.5468H207.111Z" fill="white"/>
<path d="M221.441 59.6347H217.234V39.7341H224.065C225.589 39.7341 226.892 40.0309 227.975 40.6245C229.066 41.2092 229.895 42.0052 230.464 43.0126C231.041 44.011 231.329 45.1398 231.329 46.3991C231.329 47.6493 231.036 48.7961 230.45 49.8395C229.873 50.8739 229.043 51.7059 227.961 52.3355C226.879 52.9562 225.58 53.2665 224.065 53.2665H221.441V59.6347ZM221.441 51.9712L219.547 50.0284H223.619C224.322 50.0284 224.936 49.889 225.459 49.6102C225.982 49.3223 226.387 48.9086 226.676 48.3689C226.965 47.8202 227.109 47.1636 227.109 46.3991C227.109 45.6255 226.965 44.9869 226.676 44.4832C226.396 43.9705 225.995 43.5928 225.472 43.3499C224.958 43.0981 224.34 42.9721 223.619 42.9721H219.547L221.441 40.9753V51.9712Z" fill="white"/>
<path d="M233.944 59.6347V45.3062H238.151V50.2443L237.285 49.7046C237.385 49.03 237.565 48.4094 237.827 47.8427C238.088 47.2761 238.426 46.7858 238.841 46.3721C239.256 45.9494 239.747 45.621 240.315 45.3872C240.893 45.1533 241.551 45.0364 242.29 45.0364C242.868 45.0364 243.318 45.0814 243.643 45.1713C243.977 45.2523 244.184 45.3152 244.265 45.3602L243.575 49.111C243.494 49.066 243.314 48.994 243.034 48.8951C242.755 48.7961 242.394 48.7467 241.952 48.7467C241.231 48.7467 240.627 48.8681 240.14 49.111C239.653 49.3538 239.26 49.6776 238.963 50.0824C238.674 50.4781 238.467 50.9189 238.341 51.4046C238.214 51.8903 238.151 52.3805 238.151 52.8752V59.6347H233.944Z" fill="white"/>
<path d="M250.993 59.9315C249.947 59.9315 249.014 59.7651 248.193 59.4323C247.382 59.0995 246.746 58.6183 246.286 57.9886C245.826 57.359 245.596 56.5945 245.596 55.695C245.596 54.6786 245.876 53.8511 246.435 53.2125C246.994 52.5739 247.733 52.0882 248.653 51.7554C249.582 51.4136 250.588 51.1887 251.67 51.0808C253.248 50.9279 254.335 50.7885 254.93 50.6625C255.534 50.5366 255.836 50.3162 255.836 50.0014C255.836 49.9924 255.836 49.9834 255.836 49.9744C255.836 49.4438 255.579 49.0255 255.065 48.7197C254.56 48.4139 253.852 48.261 252.941 48.261C251.976 48.261 251.237 48.4364 250.723 48.7872C250.218 49.1289 249.965 49.6551 249.965 50.3657H245.84C245.84 49.2144 246.151 48.243 246.773 47.4515C247.404 46.6599 248.256 46.0618 249.33 45.657C250.403 45.2433 251.616 45.0364 252.968 45.0364C254.231 45.0364 255.399 45.2298 256.472 45.6165C257.545 45.9943 258.406 46.5655 259.055 47.33C259.714 48.0946 260.043 49.066 260.043 50.2443C260.043 50.4332 260.043 50.6221 260.043 50.8109C260.043 50.9908 260.043 51.1752 260.043 51.3641V56.4371C260.043 56.8059 260.052 57.1611 260.07 57.5029C260.097 57.8357 260.151 58.1416 260.232 58.4204C260.322 58.7352 260.435 58.996 260.57 59.2029C260.706 59.4098 260.818 59.5537 260.909 59.6347H256.783C256.72 59.5717 256.621 59.4413 256.485 59.2434C256.359 59.0455 256.251 58.8162 256.161 58.5553C256.052 58.2405 255.971 57.9257 255.917 57.6109C255.872 57.2871 255.85 56.9093 255.85 56.4776L256.715 57.0712C256.463 57.6648 256.052 58.1775 255.484 58.6093C254.925 59.032 254.258 59.3603 253.482 59.5942C252.716 59.819 251.886 59.9315 250.993 59.9315ZM252.116 56.8014C252.774 56.8014 253.388 56.6844 253.956 56.4506C254.533 56.2077 255.002 55.8299 255.363 55.3172C255.723 54.8046 255.904 54.1345 255.904 53.3069V51.8633L256.945 52.8752C256.35 53.0911 255.66 53.271 254.876 53.4149C254.1 53.5498 253.325 53.6577 252.549 53.7387C251.629 53.8286 250.939 53.986 250.479 54.2109C250.028 54.4268 249.803 54.7956 249.803 55.3172C249.803 55.8119 249.997 56.1852 250.385 56.4371C250.772 56.6799 251.35 56.8014 252.116 56.8014Z" fill="white"/>
<path d="M269.117 59.9585C267.918 59.9585 266.813 59.6751 265.803 59.1085C264.793 58.5328 263.982 57.6828 263.369 56.5585C262.755 55.4342 262.449 54.049 262.449 52.403C262.449 50.8289 262.76 49.4932 263.382 48.3959C264.013 47.2985 264.834 46.4665 265.844 45.8999C266.863 45.3242 267.954 45.0364 269.117 45.0364C270.254 45.0364 271.291 45.3242 272.229 45.8999C273.175 46.4755 273.933 47.2626 274.501 48.261C275.069 49.2504 275.353 50.3927 275.353 51.6879C275.353 51.7329 275.353 51.7779 275.353 51.8228C275.353 51.8588 275.353 51.8993 275.353 51.9443L273.541 51.9712C273.541 51.9443 273.541 51.9173 273.541 51.8903C273.541 51.8543 273.541 51.8228 273.541 51.7959C273.541 51.1213 273.378 50.5411 273.054 50.0554C272.729 49.5697 272.31 49.1964 271.796 48.9356C271.282 48.6657 270.745 48.5308 270.186 48.5308C269.257 48.5308 268.455 48.8411 267.778 49.4617C267.102 50.0734 266.764 51.0538 266.764 52.403C266.764 53.7522 267.102 54.7461 267.778 55.3847C268.464 56.0143 269.266 56.3291 270.186 56.3291C270.763 56.3291 271.309 56.1942 271.823 55.9244C272.337 55.6455 272.752 55.2543 273.067 54.7506C273.383 54.2469 273.541 53.6532 273.541 52.9696L275.353 53.0641C275.353 54.3503 275.074 55.5151 274.515 56.5585C273.965 57.5929 273.216 58.4204 272.269 59.041C271.331 59.6527 270.281 59.9585 269.117 59.9585ZM273.541 59.6347V38.5468H277.747V59.6347H273.541Z" fill="white"/>
<path d="M288.141 59.945C286.59 59.945 285.224 59.6257 284.042 58.9871C282.861 58.3484 281.937 57.4715 281.269 56.3561C280.611 55.2318 280.282 53.9366 280.282 52.4704C280.282 51.0133 280.611 49.7271 281.269 48.6118C281.937 47.4874 282.861 46.615 284.042 45.9943C285.224 45.3647 286.59 45.0499 288.141 45.0499C289.692 45.0499 291.058 45.3647 292.24 45.9943C293.421 46.615 294.341 47.4874 294.999 48.6118C295.666 49.7271 296 51.0133 296 52.4704C296 53.9366 295.666 55.2318 294.999 56.3561C294.341 57.4715 293.421 58.3484 292.24 58.9871C291.058 59.6257 289.692 59.945 288.141 59.945ZM288.141 56.626C288.871 56.626 289.507 56.4551 290.048 56.1133C290.589 55.7715 291.009 55.2903 291.306 54.6696C291.604 54.04 291.753 53.3069 291.753 52.4704C291.753 51.6339 291.604 50.9099 291.306 50.2982C291.009 49.6776 290.589 49.2009 290.048 48.8681C289.507 48.5353 288.871 48.3689 288.141 48.3689C287.42 48.3689 286.784 48.5353 286.234 48.8681C285.693 49.2009 285.273 49.6776 284.976 50.2982C284.678 50.9099 284.529 51.6339 284.529 52.4704C284.529 53.3069 284.678 54.04 284.976 54.6696C285.273 55.2903 285.693 55.7715 286.234 56.1133C286.784 56.4551 287.42 56.626 288.141 56.626Z" fill="white"/>
<path d="M124.494 83.9201H122.439V69.9897H126.643C127.716 69.9897 128.616 70.1912 129.342 70.5942C130.074 70.9971 130.623 71.5417 130.989 72.228C131.362 72.908 131.548 73.6699 131.548 74.5136C131.548 75.3573 131.359 76.1348 130.98 76.8463C130.607 77.5515 130.055 78.1181 129.323 78.5463C128.591 78.9744 127.697 79.1885 126.643 79.1885H124.494V83.9201ZM124.494 78.4896L123.566 77.4885H126.406C127.076 77.4885 127.637 77.3689 128.092 77.1296C128.553 76.8841 128.9 76.5378 129.133 76.0908C129.367 75.6437 129.484 75.118 129.484 74.5136C129.484 73.9091 129.37 73.396 129.143 72.9741C128.916 72.5523 128.575 72.2343 128.12 72.0202C127.666 71.7999 127.094 71.6897 126.406 71.6897H123.566L124.494 70.613V78.4896Z" fill="white"/>
<path d="M133.675 83.9201V73.8902H135.73V77.0919L135.181 76.8463C135.225 76.4371 135.329 76.0467 135.493 75.6752C135.658 75.3037 135.875 74.9732 136.147 74.6836C136.425 74.3876 136.765 74.1547 137.169 73.9847C137.573 73.8147 138.041 73.7297 138.571 73.7297C138.975 73.7297 139.3 73.7612 139.546 73.8241C139.799 73.8871 139.953 73.9375 140.01 73.9752L139.575 75.9019C139.511 75.8578 139.382 75.8011 139.186 75.7319C138.997 75.6626 138.732 75.628 138.391 75.628C137.873 75.628 137.444 75.7193 137.103 75.9019C136.762 76.0845 136.491 76.3269 136.289 76.6291C136.087 76.9313 135.942 77.2619 135.853 77.6208C135.771 77.9733 135.73 78.3291 135.73 78.688V83.9201H133.675Z" fill="white"/>
<path d="M146.337 84.109C145.302 84.109 144.387 83.8855 143.591 83.4385C142.802 82.9914 142.184 82.3776 141.735 81.5968C141.294 80.8098 141.073 79.9094 141.073 78.8957C141.073 77.8883 141.294 76.9974 141.735 76.223C142.184 75.4423 142.802 74.8347 143.591 74.4002C144.387 73.9595 145.302 73.7391 146.337 73.7391C147.373 73.7391 148.285 73.9595 149.074 74.4002C149.869 74.8347 150.488 75.4423 150.93 76.223C151.378 76.9974 151.602 77.8883 151.602 78.8957C151.602 79.9094 151.378 80.8098 150.93 81.5968C150.488 82.3776 149.869 82.9914 149.074 83.4385C148.285 83.8855 147.373 84.109 146.337 84.109ZM146.337 82.3524C146.969 82.3524 147.524 82.2107 148.004 81.9274C148.484 81.644 148.859 81.2442 149.131 80.7279C149.402 80.2054 149.538 79.5946 149.538 78.8957C149.538 78.2032 149.402 77.6019 149.131 77.0919C148.859 76.5819 148.484 76.1884 148.004 75.9113C147.524 75.6343 146.969 75.4958 146.337 75.4958C145.712 75.4958 145.157 75.6343 144.671 75.9113C144.191 76.1884 143.815 76.5819 143.544 77.0919C143.273 77.6019 143.137 78.2032 143.137 78.8957C143.137 79.5946 143.273 80.2054 143.544 80.7279C143.815 81.2442 144.191 81.644 144.671 81.9274C145.157 82.2107 145.712 82.3524 146.337 82.3524Z" fill="white"/>
<path d="M158.055 84.1185C157.228 84.1185 156.468 83.9201 155.773 83.5235C155.079 83.1205 154.523 82.5287 154.107 81.7479C153.69 80.9672 153.482 80.0133 153.482 78.8863C153.482 77.7845 153.693 76.8495 154.116 76.0813C154.539 75.3132 155.098 74.7308 155.792 74.3341C156.487 73.9312 157.241 73.7297 158.055 73.7297C158.838 73.7297 159.564 73.9186 160.233 74.2963C160.909 74.6741 161.451 75.1998 161.862 75.8735C162.272 76.5409 162.477 77.3122 162.477 78.1874C162.477 78.2126 162.477 78.2378 162.477 78.263C162.477 78.2819 162.477 78.3007 162.477 78.3196L161.284 78.3574C161.284 78.3385 161.284 78.3196 161.284 78.3007C161.284 78.2756 161.284 78.2535 161.284 78.2346C161.284 77.712 161.152 77.2493 160.886 76.8463C160.621 76.4371 160.271 76.116 159.835 75.883C159.406 75.6437 158.949 75.5241 158.462 75.5241C157.648 75.5241 156.966 75.798 156.417 76.3458C155.868 76.8872 155.593 77.7341 155.593 78.8863C155.593 80.0322 155.868 80.8822 156.417 81.4363C156.973 81.984 157.654 82.2579 158.462 82.2579C158.967 82.2579 159.435 82.1383 159.864 81.899C160.293 81.6535 160.637 81.3198 160.896 80.8979C161.155 80.4761 161.284 79.9944 161.284 79.453L162.477 79.5002C162.477 80.3691 162.278 81.1529 161.881 81.8518C161.489 82.5507 160.959 83.1048 160.29 83.514C159.627 83.917 158.882 84.1185 158.055 84.1185ZM161.284 83.9201V69.1586H163.348V83.9201H161.284Z" fill="white"/>
<path d="M169.648 84.0996C168.935 84.0996 168.342 83.9799 167.868 83.7407C167.395 83.4951 167.019 83.1772 166.741 82.7868C166.464 82.3901 166.268 81.9589 166.154 81.4929C166.041 81.0207 165.984 80.5611 165.984 80.1141C165.984 79.8811 165.984 79.6387 165.984 79.3868C165.984 79.1287 165.984 78.8705 165.984 78.6124V73.8902H168.048V78.3196C168.048 78.5463 168.048 78.7698 168.048 78.9902C168.048 79.2043 168.048 79.4057 168.048 79.5946C168.048 80.0794 168.111 80.5265 168.237 80.9357C168.364 81.3387 168.585 81.6661 168.9 81.9179C169.222 82.1635 169.67 82.2863 170.245 82.2863C170.781 82.2863 171.249 82.1289 171.646 81.814C172.044 81.4929 172.353 81.09 172.574 80.6052C172.795 80.1141 172.906 79.623 172.906 79.1318L173.805 79.6135C173.805 80.1928 173.707 80.75 173.512 81.2852C173.322 81.8203 173.048 82.302 172.688 82.7301C172.328 83.152 171.889 83.4857 171.372 83.7312C170.86 83.9768 170.286 84.0996 169.648 84.0996ZM172.906 83.9201V73.8902H174.96V83.9201H172.906Z" fill="white"/>
<path d="M182.437 84.1185C181.427 84.1185 180.521 83.9075 179.72 83.4857C178.924 83.0575 178.296 82.45 177.836 81.6629C177.381 80.8759 177.154 79.9504 177.154 78.8863C177.154 77.8222 177.381 76.9061 177.836 76.138C178.296 75.3636 178.924 74.7686 179.72 74.353C180.521 73.9375 181.427 73.7297 182.437 73.7297C183.201 73.7297 183.88 73.8462 184.473 74.0791C185.066 74.3058 185.568 74.608 185.979 74.9858C186.389 75.3636 186.701 75.7791 186.916 76.2324C187.131 76.6858 187.238 77.1391 187.238 77.5924C187.238 77.5987 187.238 77.6082 187.238 77.6208C187.238 77.6333 187.238 77.6459 187.238 77.6585H185.202C185.202 77.627 185.199 77.5924 185.193 77.5546C185.186 77.5106 185.18 77.4696 185.174 77.4319C185.123 77.0604 184.978 76.7298 184.738 76.4402C184.498 76.1506 184.183 75.9208 183.791 75.7508C183.4 75.5808 182.942 75.4958 182.418 75.4958C181.844 75.4958 181.314 75.6217 180.828 75.8735C180.348 76.1191 179.963 76.4937 179.672 76.9974C179.382 77.5011 179.237 78.1307 179.237 78.8863C179.237 79.6418 179.379 80.2778 179.663 80.794C179.953 81.304 180.338 81.6913 180.818 81.9557C181.304 82.2201 181.838 82.3524 182.418 82.3524C183.043 82.3524 183.555 82.2579 183.952 82.069C184.35 81.8739 184.65 81.6157 184.852 81.2946C185.054 80.9672 185.171 80.6146 185.202 80.2368H187.238C187.238 80.6902 187.134 81.1498 186.926 81.6157C186.717 82.0753 186.411 82.494 186.007 82.8718C185.603 83.2496 185.101 83.5518 184.502 83.7785C183.908 84.0051 183.22 84.1185 182.437 84.1185Z" fill="white"/>
<path d="M193.64 84.0901C193.306 84.0901 192.971 84.0555 192.637 83.9862C192.308 83.917 192.005 83.7911 191.728 83.6085C191.456 83.4196 191.238 83.152 191.074 82.8057C190.91 82.4594 190.828 82.0061 190.828 81.4457C190.828 81.3135 190.828 81.175 190.828 81.0302C190.828 80.8853 190.828 80.7374 190.828 80.5863V75.5902H188.413V73.8902H189.682C189.954 73.8902 190.165 73.8808 190.317 73.8619C190.474 73.8367 190.588 73.7832 190.658 73.7013C190.733 73.6132 190.781 73.4747 190.8 73.2858C190.819 73.0969 190.828 72.8388 190.828 72.5114V70.5753H192.883V73.8902H195.96V75.5902H192.883V80.0385C192.883 80.1644 192.883 80.2904 192.883 80.4163C192.883 80.5422 192.883 80.6587 192.883 80.7657C192.883 81.2694 192.943 81.6661 193.063 81.9557C193.189 82.2453 193.473 82.3901 193.915 82.3901C194.104 82.3901 194.284 82.3744 194.455 82.3429C194.625 82.3114 194.754 82.2768 194.843 82.239V83.9107C194.729 83.9548 194.568 83.9957 194.36 84.0335C194.152 84.0712 193.912 84.0901 193.64 84.0901Z" fill="white"/>
<path d="M202.591 83.9201V69.9897H206.425C207.353 69.9897 208.193 70.1534 208.944 70.4808C209.695 70.8082 210.336 71.2741 210.866 71.8786C211.403 72.483 211.816 73.2134 212.107 74.0697C212.397 74.926 212.542 75.883 212.542 76.9408C212.542 78.0048 212.397 78.965 212.107 79.8213C211.816 80.6776 211.403 81.4111 210.866 82.0218C210.336 82.6325 209.695 83.1016 208.944 83.429C208.193 83.7564 207.353 83.9201 206.425 83.9201H202.591ZM204.655 83.2968L203.727 82.2201H206.179C207 82.2201 207.732 82.0061 208.376 81.5779C209.026 81.1498 209.534 80.5422 209.9 79.7552C210.267 78.9618 210.45 78.0237 210.45 76.9408C210.45 75.8515 210.267 74.9165 209.9 74.1358C209.534 73.3488 209.026 72.7443 208.376 72.3225C207.732 71.9006 207 71.6897 206.179 71.6897H203.727L204.655 70.613V83.2968Z" fill="white"/>
<path d="M215.518 79.623V78.0269H222.922L222.638 78.4991C222.638 78.4613 222.638 78.4235 222.638 78.3857C222.638 78.3417 222.638 78.3039 222.638 78.2724C222.638 77.7624 222.528 77.2933 222.307 76.8652C222.086 76.4308 221.755 76.0845 221.313 75.8263C220.877 75.5619 220.331 75.4297 219.675 75.4297C219.018 75.4297 218.44 75.5713 217.942 75.8547C217.449 76.1317 217.064 76.5284 216.787 77.0446C216.515 77.5546 216.379 78.1685 216.379 78.8863C216.379 79.6167 216.512 80.2463 216.777 80.7752C217.042 81.2977 217.424 81.7007 217.923 81.984C218.422 82.2674 219.018 82.409 219.712 82.409C220.198 82.409 220.618 82.3618 220.972 82.2674C221.332 82.1666 221.625 82.0344 221.852 81.8707C222.086 81.707 222.263 81.5307 222.383 81.3418C222.503 81.1466 222.572 80.9546 222.591 80.7657H224.636C224.598 81.175 224.463 81.5811 224.229 81.984C224.002 82.3807 223.677 82.7427 223.254 83.0701C222.837 83.3912 222.326 83.6494 221.72 83.8446C221.12 84.0335 220.429 84.1279 219.646 84.1279C218.598 84.1279 217.68 83.9075 216.891 83.4668C216.102 83.0261 215.486 82.4153 215.044 81.6346C214.602 80.8476 214.382 79.9472 214.382 78.9335C214.382 77.9009 214.606 76.9943 215.054 76.2135C215.502 75.4328 216.124 74.8252 216.919 74.3908C217.715 73.95 218.627 73.7297 219.656 73.7297C220.703 73.7297 221.609 73.95 222.373 74.3908C223.143 74.8315 223.737 75.4391 224.153 76.2135C224.57 76.988 224.778 77.8789 224.778 78.8863C224.778 79.0059 224.775 79.1444 224.769 79.3018C224.762 79.4593 224.753 79.5663 224.74 79.623H215.518Z" fill="white"/>
<path d="M231.026 84.1185C230.427 84.1185 229.862 84.0524 229.331 83.9201C228.801 83.7879 228.334 83.5959 227.93 83.344C227.532 83.0859 227.22 82.7679 226.993 82.3901C226.772 82.0124 226.661 81.5748 226.661 81.0774C226.661 81.0333 226.661 80.9892 226.661 80.9452C226.661 80.8948 226.661 80.8539 226.661 80.8224H228.707C228.707 80.8539 228.707 80.8822 228.707 80.9074C228.707 80.9326 228.707 80.9672 228.707 81.0113C228.707 81.4709 228.918 81.8203 229.341 82.0596C229.77 82.2926 230.351 82.409 231.083 82.409C231.512 82.409 231.904 82.365 232.257 82.2768C232.617 82.1887 232.901 82.0533 233.11 81.8707C233.324 81.6881 233.431 81.4552 233.431 81.1718C233.431 80.7122 233.204 80.3848 232.75 80.1896C232.302 79.9944 231.62 79.8213 230.704 79.6702C230.206 79.582 229.723 79.4687 229.256 79.3302C228.795 79.1917 228.378 79.0091 228.006 78.7824C227.64 78.5494 227.346 78.263 227.125 77.923C226.911 77.5767 226.803 77.1611 226.803 76.6763C226.803 76.0467 226.993 75.5115 227.371 75.0708C227.75 74.63 228.262 74.2963 228.905 74.0697C229.549 73.843 230.259 73.7297 231.036 73.7297C231.787 73.7297 232.481 73.8525 233.119 74.098C233.763 74.3373 234.28 74.6867 234.672 75.1463C235.063 75.5997 235.259 76.1569 235.259 76.818C235.259 76.8432 235.259 76.8715 235.259 76.903C235.259 76.9345 235.259 76.9628 235.259 76.988H233.223C233.223 76.9628 233.223 76.9408 233.223 76.9219C233.223 76.903 233.223 76.8809 233.223 76.8558C233.223 76.5284 233.119 76.2608 232.911 76.053C232.702 75.8452 232.431 75.691 232.096 75.5902C231.768 75.4832 231.418 75.4297 231.045 75.4297C230.704 75.4297 230.36 75.4674 230.013 75.543C229.672 75.6123 229.388 75.735 229.161 75.9113C228.934 76.0813 228.82 76.3143 228.82 76.6102C228.82 76.9124 228.931 77.1548 229.152 77.3374C229.373 77.5137 229.685 77.6617 230.089 77.7813C230.493 77.8946 230.963 77.9985 231.5 78.093C231.992 78.1811 232.472 78.2944 232.939 78.433C233.406 78.5652 233.826 78.7415 234.198 78.9618C234.577 79.1822 234.877 79.4655 235.098 79.8118C235.325 80.1581 235.439 80.5831 235.439 81.0868C235.439 81.6094 235.319 82.0596 235.079 82.4374C234.839 82.8151 234.511 83.13 234.094 83.3818C233.684 83.6274 233.214 83.8099 232.683 83.9296C232.159 84.0555 231.607 84.1185 231.026 84.1185Z" fill="white"/>
<path d="M237.731 83.9201V73.8902H239.757V83.9201H237.731ZM238.753 71.8125C238.4 71.8125 238.094 71.718 237.835 71.5291C237.582 71.334 237.456 71.0664 237.456 70.7264C237.456 70.3927 237.582 70.1314 237.835 69.9425C238.094 69.7473 238.4 69.6497 238.753 69.6497C239.101 69.6497 239.4 69.7473 239.653 69.9425C239.912 70.1314 240.041 70.3927 240.041 70.7264C240.041 71.0664 239.912 71.334 239.653 71.5291C239.4 71.718 239.101 71.8125 238.753 71.8125Z" fill="white"/>
<path d="M249.092 83.1174C249.66 83.1677 250.159 83.2748 250.588 83.4385C251.017 83.5959 251.352 83.8288 251.592 84.1374C251.838 84.4522 251.961 84.8646 251.961 85.3746C251.961 85.9475 251.765 86.4449 251.374 86.8668C250.989 87.2949 250.411 87.6255 249.641 87.8584C248.871 88.0977 247.915 88.2173 246.772 88.2173C245.137 88.2173 243.89 87.9812 243.032 87.509C242.173 87.0368 241.744 86.3946 241.744 85.5823C241.744 85.3368 241.773 85.1196 241.829 84.9307C241.886 84.7418 241.956 84.5844 242.038 84.4585L243.95 84.7418C243.906 84.8048 243.862 84.896 243.818 85.0157C243.774 85.1416 243.752 85.2927 243.752 85.469C243.752 85.916 244.026 86.234 244.575 86.4229C245.124 86.6118 245.885 86.7062 246.857 86.7062C247.571 86.7062 248.161 86.6558 248.628 86.5551C249.101 86.4607 249.455 86.3221 249.688 86.1396C249.922 85.957 250.039 85.7429 250.039 85.4973C250.039 85.1259 249.878 84.8929 249.556 84.7985C249.234 84.704 248.846 84.6379 248.391 84.6001L244.575 84.2885C243.912 84.2318 243.37 84.0335 242.947 83.6935C242.53 83.3535 242.322 82.9253 242.322 82.409C242.322 82.0879 242.404 81.7889 242.568 81.5118C242.732 81.2348 242.921 81.0018 243.136 80.8129C243.357 80.6241 243.546 80.5076 243.704 80.4635L245.049 81.1057C244.904 81.1246 244.727 81.2222 244.518 81.3985C244.316 81.5685 244.215 81.77 244.215 82.0029C244.215 82.217 244.304 82.3933 244.481 82.5318C244.664 82.6703 245.017 82.7616 245.541 82.8057L249.092 83.1174ZM250.351 73.8902H252.217L251.45 77.8096C251.311 78.54 251.055 79.2011 250.683 79.7929C250.316 80.3785 249.818 80.8413 249.187 81.1813C248.562 81.5213 247.782 81.6913 246.848 81.6913C245.876 81.6913 245.039 81.5244 244.339 81.1907C243.638 80.857 243.098 80.3942 242.719 79.8024C242.347 79.2043 242.161 78.5243 242.161 77.7624C242.161 76.988 242.353 76.2954 242.738 75.6847C243.13 75.0739 243.666 74.5954 244.348 74.2491C245.036 73.9028 245.822 73.7297 246.706 73.7297C247.451 73.7297 248.11 73.8556 248.685 74.1075C249.265 74.3593 249.726 74.6804 250.067 75.0708C250.408 75.4611 250.594 75.8672 250.626 76.2891L250.039 76.3552L250.351 73.8902ZM246.838 80.0196C247.388 80.0196 247.861 79.9315 248.259 79.7552C248.656 79.5726 248.962 79.3113 249.177 78.9713C249.392 78.625 249.499 78.2094 249.499 77.7246C249.499 77.2461 249.392 76.8369 249.177 76.4969C248.962 76.1506 248.656 75.8861 248.259 75.7035C247.861 75.5147 247.391 75.4202 246.848 75.4202C246.324 75.4202 245.86 75.5178 245.456 75.713C245.058 75.9019 244.746 76.1695 244.518 76.5158C244.291 76.8621 244.178 77.2745 244.178 77.753C244.178 78.2315 244.285 78.6407 244.5 78.9807C244.714 79.3144 245.02 79.5726 245.418 79.7552C245.816 79.9315 246.289 80.0196 246.838 80.0196Z" fill="white"/>
<path d="M261.32 83.9201V79.2924C261.32 79.0217 261.32 78.7918 261.32 78.603C261.32 78.4141 261.32 78.2378 261.32 78.0741C261.32 77.583 261.244 77.1517 261.093 76.7802C260.941 76.4024 260.692 76.1097 260.345 75.9019C259.998 75.6878 259.534 75.5808 258.953 75.5808C258.442 75.5808 257.978 75.7067 257.561 75.9585C257.151 76.2104 256.822 76.5535 256.576 76.988C256.336 77.4161 256.216 77.9041 256.216 78.4519L255.336 78.0174C255.336 77.2052 255.528 76.478 255.913 75.8358C256.298 75.1873 256.813 74.6741 257.457 74.2963C258.107 73.9186 258.817 73.7297 259.587 73.7297C260.383 73.7297 261.061 73.8839 261.623 74.1925C262.191 74.4947 262.624 74.9291 262.92 75.4958C263.223 76.0561 263.375 76.7267 263.375 77.5074C263.375 77.797 263.375 78.1182 263.375 78.4707C263.375 78.8233 263.375 79.1633 263.375 79.4907V83.9201H261.32ZM254.162 83.9201V73.8902H256.216V83.9201H254.162Z" fill="white"/>
<path d="M266.69 79.623V78.0269H274.094L273.81 78.4991C273.81 78.4613 273.81 78.4235 273.81 78.3857C273.81 78.3417 273.81 78.3039 273.81 78.2724C273.81 77.7624 273.7 77.2933 273.479 76.8652C273.258 76.4308 272.926 76.0845 272.485 75.8263C272.049 75.5619 271.503 75.4297 270.846 75.4297C270.19 75.4297 269.612 75.5713 269.114 75.8547C268.621 76.1317 268.236 76.5284 267.959 77.0446C267.687 77.5546 267.551 78.1685 267.551 78.8863C267.551 79.6167 267.684 80.2463 267.949 80.7752C268.214 81.2977 268.596 81.7007 269.095 81.984C269.593 82.2674 270.19 82.409 270.884 82.409C271.37 82.409 271.79 82.3618 272.144 82.2674C272.504 82.1666 272.797 82.0344 273.024 81.8707C273.258 81.707 273.435 81.5307 273.555 81.3418C273.674 81.1466 273.744 80.9546 273.763 80.7657H275.808C275.77 81.175 275.635 81.5811 275.401 81.984C275.174 82.3807 274.849 82.7427 274.426 83.0701C274.009 83.3912 273.498 83.6494 272.892 83.8446C272.292 84.0335 271.601 84.1279 270.818 84.1279C269.77 84.1279 268.852 83.9075 268.063 83.4668C267.274 83.0261 266.658 82.4153 266.216 81.6346C265.774 80.8476 265.553 79.9472 265.553 78.9335C265.553 77.9009 265.778 76.9943 266.226 76.2135C266.674 75.4328 267.296 74.8252 268.091 74.3908C268.886 73.95 269.799 73.7297 270.828 73.7297C271.875 73.7297 272.781 73.95 273.545 74.3908C274.315 74.8315 274.909 75.4391 275.325 76.2135C275.742 76.988 275.95 77.8789 275.95 78.8863C275.95 79.0059 275.947 79.1444 275.941 79.3018C275.934 79.4593 275.925 79.5663 275.912 79.623H266.69Z" fill="white"/>
<path d="M278.24 83.9201V73.8902H280.295V77.0919L279.746 76.8463C279.79 76.4371 279.894 76.0467 280.058 75.6752C280.223 75.3037 280.44 74.9732 280.712 74.6836C280.99 74.3876 281.33 74.1547 281.734 73.9847C282.138 73.8147 282.605 73.7297 283.136 73.7297C283.54 73.7297 283.865 73.7612 284.111 73.8241C284.364 73.8871 284.518 73.9375 284.575 73.9752L284.139 75.9019C284.076 75.8578 283.947 75.8011 283.751 75.7319C283.562 75.6626 283.297 75.628 282.956 75.628C282.438 75.628 282.009 75.7193 281.668 75.9019C281.327 76.0845 281.056 76.3269 280.854 76.6291C280.652 76.9313 280.507 77.2619 280.418 77.6208C280.336 77.9733 280.295 78.3291 280.295 78.688V83.9201H278.24Z" fill="white"/>
<path d="M47.0271 34H40V66.9004H47.0271V60.688H47.0296C47.1661 50.142 55.5169 41.569 66.0006 41.0272V34.0202C58.4855 34.3071 51.7561 37.6475 47.0271 42.8315V34Z" fill="white"/>
<path d="M68.1084 87.968C82.4743 87.4196 93.969 75.7127 94.1072 61.3004H87.0796C86.943 71.8463 78.5921 80.4191 68.1084 80.9608V87.968Z" fill="white"/>
<path fill-rule="evenodd" clip-rule="evenodd" d="M67.0547 73.9005C74.2345 73.9005 80.0549 68.1025 80.0549 60.9503C80.0549 53.7981 74.2345 48.0001 67.0547 48.0001C59.9924 48.0001 54.2455 53.6098 54.0591 60.6H54.0542V80.9003H61.0813V72.4555C62.8699 73.3789 64.9011 73.9005 67.0547 73.9005ZM67.0549 55.0001C70.3537 55.0001 73.028 57.6641 73.028 60.9502C73.028 64.2363 70.3537 66.9003 67.0549 66.9003C63.7561 66.9003 61.0818 64.2363 61.0818 60.9502C61.0818 57.6641 63.7561 55.0001 67.0549 55.0001Z" fill="white"/>
<defs>
<linearGradient id="paint0_linear_104_330" x1="-5.45021e-06" y1="59.5014" x2="861" y2="59.5013" gradientUnits="userSpaceOnUse">
<stop stop-color="#021826"/>
<stop offset="1" stop-color="#00080D"/>
</linearGradient>
</defs>
</svg>
