<svg width="861" height="119" viewBox="0 0 861 119" fill="none" xmlns="http://www.w3.org/2000/svg">
<rect width="861" height="119" rx="8" fill="url(#paint0_linear_1561_315)"/>
<path d="M113.548 57V39.3H120.364C122.148 39.3 123.488 39.708 124.384 40.524C125.28 41.34 125.728 42.54 125.728 44.124C125.728 45.052 125.552 45.84 125.2 46.488C124.848 47.136 124.42 47.636 123.916 47.988C123.412 48.34 122.932 48.54 122.476 48.588C122.94 48.62 123.388 48.74 123.82 48.948C124.252 49.156 124.604 49.484 124.876 49.932C125.156 50.372 125.296 50.968 125.296 51.72C125.296 52.32 125.296 52.92 125.296 53.52C125.296 54.112 125.296 54.708 125.296 55.308C125.296 55.684 125.328 56.032 125.392 56.352C125.456 56.664 125.536 56.88 125.632 57H122.452C122.372 56.856 122.3 56.636 122.236 56.34C122.18 56.036 122.152 55.692 122.152 55.308C122.152 54.764 122.152 54.232 122.152 53.712C122.152 53.184 122.152 52.644 122.152 52.092C122.152 51.364 121.948 50.812 121.54 50.436C121.132 50.06 120.516 49.872 119.692 49.872H115.792L116.632 48.804V57H113.548ZM116.632 48.54L115.792 47.352H119.716C120.236 47.352 120.704 47.232 121.12 46.992C121.536 46.744 121.864 46.4 122.104 45.96C122.352 45.52 122.476 45.004 122.476 44.412C122.476 43.548 122.228 42.9 121.732 42.468C121.236 42.036 120.532 41.82 119.62 41.82H115.708L116.632 40.704V48.54ZM131.669 57H128.501V39.3H134.189C135.549 39.3 136.697 39.56 137.633 40.08C138.577 40.592 139.293 41.292 139.781 42.18C140.277 43.06 140.525 44.044 140.525 45.132C140.525 46.228 140.277 47.232 139.781 48.144C139.285 49.056 138.561 49.788 137.609 50.34C136.665 50.884 135.525 51.156 134.189 51.156H131.669V57ZM131.669 50.148L130.241 48.648H133.841C134.577 48.648 135.205 48.508 135.725 48.228C136.245 47.94 136.641 47.536 136.913 47.016C137.193 46.488 137.333 45.86 137.333 45.132C137.333 44.404 137.197 43.796 136.925 43.308C136.661 42.812 136.269 42.44 135.749 42.192C135.229 41.944 134.593 41.82 133.841 41.82H130.241L131.669 40.248V50.148ZM143.021 57V44.256H146.178V48.492L145.446 48.084C145.526 47.532 145.674 47.012 145.89 46.524C146.106 46.028 146.394 45.596 146.754 45.228C147.114 44.852 147.55 44.56 148.062 44.352C148.574 44.144 149.158 44.04 149.814 44.04C150.334 44.04 150.742 44.08 151.038 44.16C151.342 44.232 151.53 44.292 151.602 44.34L151.026 47.232C150.946 47.176 150.782 47.108 150.534 47.028C150.294 46.94 149.97 46.896 149.562 46.896C148.914 46.896 148.37 47.008 147.93 47.232C147.498 47.448 147.154 47.744 146.898 48.12C146.642 48.488 146.458 48.896 146.346 49.344C146.234 49.784 146.178 50.224 146.178 50.664V57H143.021ZM157.725 57.264C156.773 57.264 155.937 57.116 155.217 56.82C154.497 56.516 153.933 56.08 153.525 55.512C153.117 54.944 152.913 54.26 152.913 53.46C152.913 52.588 153.149 51.872 153.621 51.312C154.101 50.744 154.745 50.308 155.553 50.004C156.361 49.692 157.257 49.492 158.241 49.404C159.697 49.26 160.713 49.124 161.289 48.996C161.873 48.86 162.165 48.644 162.165 48.348C162.165 48.34 162.165 48.336 162.165 48.336C162.165 48.328 162.165 48.324 162.165 48.324C162.165 47.764 161.913 47.332 161.409 47.028C160.905 46.724 160.193 46.572 159.273 46.572C158.305 46.572 157.561 46.744 157.041 47.088C156.529 47.424 156.273 47.96 156.273 48.696H153.153C153.153 47.696 153.417 46.852 153.945 46.164C154.481 45.468 155.213 44.94 156.141 44.58C157.069 44.22 158.121 44.04 159.297 44.04C160.393 44.04 161.397 44.204 162.309 44.532C163.221 44.86 163.953 45.356 164.505 46.02C165.057 46.684 165.333 47.512 165.333 48.504C165.333 48.672 165.333 48.84 165.333 49.008C165.333 49.176 165.333 49.344 165.333 49.512V54.312C165.333 54.616 165.341 54.916 165.357 55.212C165.381 55.5 165.425 55.76 165.489 55.992C165.569 56.248 165.665 56.464 165.777 56.64C165.889 56.816 165.977 56.936 166.041 57H162.921C162.865 56.944 162.785 56.836 162.681 56.676C162.585 56.508 162.497 56.316 162.417 56.1C162.337 55.86 162.277 55.604 162.237 55.332C162.197 55.052 162.177 54.744 162.177 54.408L162.801 54.84C162.561 55.328 162.193 55.756 161.697 56.124C161.209 56.484 160.625 56.764 159.945 56.964C159.265 57.164 158.525 57.264 157.725 57.264ZM158.493 54.78C159.149 54.78 159.757 54.668 160.317 54.444C160.877 54.22 161.329 53.876 161.673 53.412C162.017 52.94 162.189 52.336 162.189 51.6V49.896L162.957 50.76C162.445 50.952 161.829 51.112 161.109 51.24C160.389 51.36 159.661 51.456 158.925 51.528C157.981 51.616 157.269 51.78 156.789 52.02C156.317 52.26 156.081 52.652 156.081 53.196C156.081 53.724 156.281 54.12 156.681 54.384C157.081 54.648 157.685 54.78 158.493 54.78ZM173.556 57.264C172.508 57.264 171.536 57.012 170.64 56.508C169.752 55.996 169.04 55.244 168.504 54.252C167.968 53.26 167.7 52.04 167.7 50.592C167.7 49.184 167.972 47.992 168.516 47.016C169.068 46.04 169.788 45.3 170.676 44.796C171.572 44.292 172.532 44.04 173.556 44.04C174.556 44.04 175.48 44.288 176.328 44.784C177.176 45.272 177.856 45.952 178.368 46.824C178.88 47.696 179.136 48.696 179.136 49.824C179.136 49.856 179.136 49.888 179.136 49.92C179.136 49.952 179.136 49.984 179.136 50.016L177.576 50.052C177.576 50.028 177.576 50.004 177.576 49.98C177.576 49.948 177.576 49.92 177.576 49.896C177.576 49.264 177.416 48.712 177.096 48.24C176.784 47.768 176.376 47.4 175.872 47.136C175.376 46.864 174.848 46.728 174.288 46.728C173.368 46.728 172.584 47.04 171.936 47.664C171.288 48.28 170.964 49.256 170.964 50.592C170.964 51.92 171.288 52.9 171.936 53.532C172.584 54.164 173.368 54.48 174.288 54.48C174.872 54.48 175.412 54.34 175.908 54.06C176.404 53.78 176.804 53.396 177.108 52.908C177.42 52.412 177.576 51.844 177.576 51.204L179.136 51.276C179.136 52.396 178.884 53.412 178.38 54.324C177.884 55.228 177.216 55.944 176.376 56.472C175.536 57 174.596 57.264 173.556 57.264ZM177.576 57V38.244H180.744V57H177.576ZM190.114 57.252C188.77 57.252 187.586 56.972 186.562 56.412C185.538 55.844 184.734 55.06 184.15 54.06C183.574 53.06 183.286 51.916 183.286 50.628C183.286 49.332 183.574 48.192 184.15 47.208C184.734 46.216 185.538 45.44 186.562 44.88C187.586 44.32 188.77 44.04 190.114 44.04C191.458 44.04 192.642 44.32 193.666 44.88C194.69 45.44 195.49 46.216 196.066 47.208C196.65 48.192 196.942 49.332 196.942 50.628C196.942 51.916 196.65 53.06 196.066 54.06C195.49 55.06 194.69 55.844 193.666 56.412C192.642 56.972 191.458 57.252 190.114 57.252ZM190.114 54.672C190.842 54.672 191.478 54.504 192.022 54.168C192.566 53.832 192.99 53.364 193.294 52.764C193.598 52.156 193.75 51.444 193.75 50.628C193.75 49.812 193.598 49.108 193.294 48.516C192.99 47.916 192.566 47.452 192.022 47.124C191.478 46.796 190.842 46.632 190.114 46.632C189.394 46.632 188.758 46.796 188.206 47.124C187.662 47.452 187.238 47.916 186.934 48.516C186.63 49.108 186.478 49.812 186.478 50.628C186.478 51.444 186.63 52.156 186.934 52.764C187.238 53.364 187.662 53.832 188.206 54.168C188.758 54.504 189.394 54.672 190.114 54.672ZM205.517 57V39.3H210.809C211.985 39.3 213.053 39.512 214.013 39.936C214.973 40.352 215.797 40.948 216.485 41.724C217.173 42.5 217.705 43.432 218.081 44.52C218.457 45.6 218.645 46.804 218.645 48.132C218.645 49.46 218.457 50.668 218.081 51.756C217.705 52.836 217.173 53.768 216.485 54.552C215.797 55.336 214.973 55.94 214.013 56.364C213.053 56.788 211.985 57 210.809 57H205.517ZM208.685 56.052L207.257 54.48H210.401C211.361 54.48 212.217 54.224 212.969 53.712C213.729 53.192 214.329 52.46 214.769 51.516C215.209 50.564 215.429 49.436 215.429 48.132C215.429 46.82 215.209 45.692 214.769 44.748C214.329 43.804 213.729 43.08 212.969 42.576C212.217 42.072 211.361 41.82 210.401 41.82H207.257L208.685 40.248V56.052ZM222.455 51.648V49.404H231.371L231.011 50.004C231.011 49.956 231.011 49.904 231.011 49.848C231.011 49.784 231.011 49.732 231.011 49.692C231.011 49.14 230.887 48.624 230.639 48.144C230.391 47.656 230.015 47.264 229.511 46.968C229.007 46.664 228.367 46.512 227.591 46.512C226.823 46.512 226.155 46.676 225.587 47.004C225.027 47.324 224.591 47.788 224.279 48.396C223.975 49.004 223.823 49.732 223.823 50.58C223.823 51.452 223.971 52.204 224.267 52.836C224.563 53.46 224.995 53.94 225.563 54.276C226.139 54.604 226.839 54.768 227.663 54.768C228.223 54.768 228.707 54.716 229.115 54.612C229.523 54.508 229.855 54.368 230.111 54.192C230.375 54.008 230.571 53.812 230.699 53.604C230.835 53.396 230.915 53.188 230.939 52.98H234.083C234.035 53.516 233.855 54.04 233.543 54.552C233.239 55.056 232.811 55.516 232.259 55.932C231.707 56.34 231.035 56.668 230.243 56.916C229.459 57.156 228.563 57.276 227.555 57.276C226.187 57.276 224.991 56.996 223.967 56.436C222.943 55.876 222.143 55.096 221.567 54.096C220.999 53.096 220.715 51.952 220.715 50.664C220.715 49.344 221.003 48.188 221.579 47.196C222.163 46.204 222.971 45.432 224.003 44.88C225.035 44.32 226.219 44.04 227.555 44.04C228.931 44.04 230.119 44.32 231.119 44.88C232.127 45.44 232.903 46.22 233.447 47.22C233.991 48.212 234.263 49.368 234.263 50.688C234.263 50.856 234.259 51.036 234.251 51.228C234.243 51.42 234.231 51.56 234.215 51.648H222.455ZM242.013 57.264C241.253 57.264 240.529 57.18 239.841 57.012C239.161 56.844 238.553 56.592 238.017 56.256C237.489 55.92 237.069 55.504 236.757 55.008C236.453 54.504 236.301 53.924 236.301 53.268C236.301 53.22 236.301 53.172 236.301 53.124C236.301 53.076 236.301 53.032 236.301 52.992H239.445C239.445 53.032 239.445 53.068 239.445 53.1C239.445 53.124 239.445 53.16 239.445 53.208C239.445 53.728 239.681 54.12 240.153 54.384C240.633 54.64 241.285 54.768 242.109 54.768C242.557 54.768 242.977 54.72 243.369 54.624C243.769 54.528 244.089 54.38 244.329 54.18C244.577 53.98 244.701 53.724 244.701 53.412C244.701 52.908 244.441 52.548 243.921 52.332C243.409 52.116 242.601 51.92 241.497 51.744C240.889 51.64 240.289 51.5 239.697 51.324C239.105 51.148 238.565 50.912 238.077 50.616C237.597 50.32 237.209 49.952 236.913 49.512C236.625 49.072 236.481 48.536 236.481 47.904C236.481 47.064 236.729 46.36 237.225 45.792C237.729 45.216 238.401 44.78 239.241 44.484C240.089 44.188 241.021 44.04 242.037 44.04C243.013 44.04 243.921 44.2 244.761 44.52C245.601 44.84 246.277 45.3 246.789 45.9C247.309 46.5 247.569 47.224 247.569 48.072C247.569 48.104 247.569 48.14 247.569 48.18C247.569 48.212 247.569 48.24 247.569 48.264H244.449C244.449 48.24 244.449 48.216 244.449 48.192C244.449 48.168 244.449 48.14 244.449 48.108C244.449 47.74 244.333 47.44 244.101 47.208C243.869 46.976 243.569 46.804 243.201 46.692C242.833 46.58 242.445 46.524 242.037 46.524C241.677 46.524 241.305 46.564 240.921 46.644C240.537 46.716 240.217 46.848 239.961 47.04C239.705 47.224 239.577 47.484 239.577 47.82C239.577 48.14 239.709 48.4 239.973 48.6C240.237 48.8 240.605 48.968 241.077 49.104C241.549 49.232 242.093 49.348 242.709 49.452C243.293 49.548 243.881 49.68 244.473 49.848C245.073 50.016 245.621 50.24 246.117 50.52C246.613 50.8 247.013 51.168 247.317 51.624C247.629 52.072 247.785 52.628 247.785 53.292C247.785 53.996 247.625 54.596 247.305 55.092C246.985 55.588 246.549 56 245.997 56.328C245.453 56.648 244.837 56.884 244.149 57.036C243.461 57.188 242.749 57.264 242.013 57.264ZM250.329 57V44.256H253.449V57H250.329ZM251.901 41.904C251.389 41.904 250.941 41.768 250.557 41.496C250.181 41.216 249.993 40.828 249.993 40.332C249.993 39.844 250.181 39.464 250.557 39.192C250.941 38.92 251.389 38.784 251.901 38.784C252.405 38.784 252.845 38.92 253.221 39.192C253.597 39.464 253.785 39.844 253.785 40.332C253.785 40.828 253.597 41.216 253.221 41.496C252.845 41.768 252.405 41.904 251.901 41.904ZM265.144 55.74C265.896 55.812 266.556 55.952 267.124 56.16C267.692 56.368 268.136 56.676 268.456 57.084C268.776 57.5 268.936 58.052 268.936 58.74C268.936 59.508 268.676 60.172 268.156 60.732C267.636 61.292 266.872 61.724 265.864 62.028C264.864 62.332 263.632 62.484 262.168 62.484C260.04 62.484 258.404 62.176 257.26 61.56C256.116 60.952 255.544 60.124 255.544 59.076C255.544 58.78 255.58 58.512 255.652 58.272C255.724 58.032 255.812 57.832 255.916 57.672L258.808 58.092C258.76 58.156 258.712 58.256 258.664 58.392C258.616 58.536 258.592 58.708 258.592 58.908C258.592 59.404 258.924 59.76 259.588 59.976C260.26 60.2 261.152 60.312 262.264 60.312C263.08 60.312 263.76 60.256 264.304 60.144C264.856 60.032 265.272 59.872 265.552 59.664C265.84 59.456 265.984 59.212 265.984 58.932C265.984 58.516 265.796 58.248 265.42 58.128C265.044 58.008 264.596 57.928 264.076 57.888L259.24 57.444C258.376 57.356 257.664 57.1 257.104 56.676C256.552 56.252 256.276 55.692 256.276 54.996C256.276 54.572 256.388 54.18 256.612 53.82C256.844 53.46 257.108 53.16 257.404 52.92C257.7 52.672 257.952 52.52 258.16 52.464L259.96 53.352C259.792 53.376 259.592 53.484 259.36 53.676C259.136 53.868 259.024 54.096 259.024 54.36C259.024 54.608 259.136 54.816 259.36 54.984C259.584 55.144 260.016 55.256 260.656 55.32L265.144 55.74ZM266.572 44.256H269.404L268.252 49.2C268.036 50.128 267.688 50.96 267.208 51.696C266.728 52.432 266.088 53.012 265.288 53.436C264.488 53.86 263.48 54.072 262.264 54.072C261 54.072 259.908 53.868 258.988 53.46C258.076 53.044 257.372 52.464 256.876 51.72C256.38 50.968 256.132 50.104 256.132 49.128C256.132 48.128 256.384 47.248 256.888 46.488C257.4 45.72 258.1 45.12 258.988 44.688C259.884 44.256 260.896 44.04 262.024 44.04C262.936 44.04 263.756 44.192 264.484 44.496C265.212 44.792 265.792 45.18 266.224 45.66C266.664 46.14 266.9 46.652 266.932 47.196L266.224 47.328L266.572 44.256ZM262.252 51.636C262.868 51.636 263.4 51.536 263.848 51.336C264.296 51.136 264.644 50.848 264.892 50.472C265.14 50.088 265.264 49.624 265.264 49.08C265.264 48.544 265.14 48.084 264.892 47.7C264.644 47.316 264.296 47.024 263.848 46.824C263.4 46.616 262.872 46.512 262.264 46.512C261.672 46.512 261.148 46.616 260.692 46.824C260.236 47.032 259.876 47.332 259.612 47.724C259.356 48.108 259.228 48.568 259.228 49.104C259.228 49.64 259.352 50.1 259.6 50.484C259.856 50.86 260.208 51.148 260.656 51.348C261.112 51.54 261.644 51.636 262.252 51.636ZM280.541 57V51.348C280.541 51.028 280.541 50.748 280.541 50.508C280.541 50.26 280.541 50.036 280.541 49.836C280.541 49.26 280.457 48.744 280.289 48.288C280.129 47.824 279.849 47.46 279.449 47.196C279.057 46.932 278.513 46.8 277.817 46.8C277.209 46.8 276.669 46.948 276.197 47.244C275.725 47.532 275.353 47.932 275.081 48.444C274.817 48.948 274.685 49.532 274.685 50.196L273.617 49.536C273.617 48.472 273.857 47.528 274.337 46.704C274.825 45.872 275.477 45.22 276.293 44.748C277.109 44.276 278.013 44.04 279.005 44.04C280.029 44.04 280.889 44.24 281.585 44.64C282.289 45.04 282.817 45.608 283.169 46.344C283.529 47.08 283.709 47.944 283.709 48.936C283.709 49.32 283.709 49.752 283.709 50.232C283.709 50.712 283.709 51.184 283.709 51.648V57H280.541ZM271.529 57V44.256H274.685V57H271.529Z" fill="white"/>
<path fill-rule="evenodd" clip-rule="evenodd" d="M45.1951 39H40V63.3861H45.1951V58.7805H45.1976C45.2984 50.964 51.4715 44.6099 59.2217 44.2077V39.0142C53.666 39.227 48.6911 41.703 45.1951 45.5453V39ZM60.7812 79.0012C71.401 78.5936 79.8979 69.9168 80 59.2349H74.8039C74.7031 67.0509 68.5307 73.4048 60.7812 73.8077V79.0012ZM59.9999 68.5745C65.308 68.5745 69.611 64.277 69.611 58.9757C69.611 53.6745 65.308 49.377 59.9999 49.377C54.7786 49.377 50.5297 53.5352 50.3923 58.7168H50.3892V58.9066L50.3889 58.9757L50.3892 59.0449V73.7635H55.5843V67.5037C56.9065 68.188 58.408 68.5745 59.9999 68.5745ZM60.0004 54.565C62.4392 54.565 64.4162 56.5395 64.4162 58.9752C64.4162 61.411 62.4392 63.3855 60.0004 63.3855C57.5615 63.3855 55.5845 61.411 55.5845 58.9752C55.5845 56.5395 57.5615 54.565 60.0004 54.565Z" fill="white"/>
<path d="M113.302 78V68.228H117.194C118.071 68.228 118.743 68.48 119.21 68.984C119.686 69.4787 119.924 70.16 119.924 71.028C119.924 71.896 119.686 72.582 119.21 73.086C118.743 73.5807 118.071 73.828 117.194 73.828H114.478V78H113.302ZM114.478 72.792H117.194C117.661 72.792 118.02 72.6707 118.272 72.428C118.533 72.1853 118.664 71.84 118.664 71.392V70.664C118.664 70.216 118.533 69.8707 118.272 69.628C118.02 69.3853 117.661 69.264 117.194 69.264H114.478V72.792ZM121.824 78V70.776H122.944V72.106H123.014C123.144 71.7607 123.378 71.4527 123.714 71.182C124.05 70.9113 124.512 70.776 125.1 70.776H125.534V71.896H124.876C124.269 71.896 123.793 72.0127 123.448 72.246C123.112 72.47 122.944 72.7547 122.944 73.1V78H121.824ZM129.906 78.168C129.42 78.168 128.977 78.0793 128.576 77.902C128.174 77.7247 127.829 77.4727 127.54 77.146C127.26 76.81 127.04 76.4133 126.882 75.956C126.723 75.4893 126.644 74.9667 126.644 74.388C126.644 73.8187 126.723 73.3007 126.882 72.834C127.04 72.3673 127.26 71.9707 127.54 71.644C127.829 71.308 128.174 71.0513 128.576 70.874C128.977 70.6967 129.42 70.608 129.906 70.608C130.391 70.608 130.83 70.6967 131.222 70.874C131.623 71.0513 131.968 71.308 132.258 71.644C132.547 71.9707 132.771 72.3673 132.93 72.834C133.088 73.3007 133.168 73.8187 133.168 74.388C133.168 74.9667 133.088 75.4893 132.93 75.956C132.771 76.4133 132.547 76.81 132.258 77.146C131.968 77.4727 131.623 77.7247 131.222 77.902C130.83 78.0793 130.391 78.168 129.906 78.168ZM129.906 77.174C130.512 77.174 131.007 76.9873 131.39 76.614C131.772 76.2407 131.964 75.6713 131.964 74.906V73.87C131.964 73.1047 131.772 72.5353 131.39 72.162C131.007 71.7887 130.512 71.602 129.906 71.602C129.299 71.602 128.804 71.7887 128.422 72.162C128.039 72.5353 127.848 73.1047 127.848 73.87V74.906C127.848 75.6713 128.039 76.2407 128.422 76.614C128.804 76.9873 129.299 77.174 129.906 77.174ZM139.91 76.824H139.854C139.415 77.72 138.71 78.168 137.74 78.168C137.292 78.168 136.886 78.0793 136.522 77.902C136.158 77.7247 135.845 77.4727 135.584 77.146C135.332 76.8193 135.136 76.4227 134.996 75.956C134.865 75.4893 134.8 74.9667 134.8 74.388C134.8 73.8093 134.865 73.2867 134.996 72.82C135.136 72.3533 135.332 71.9567 135.584 71.63C135.845 71.3033 136.158 71.0513 136.522 70.874C136.886 70.6967 137.292 70.608 137.74 70.608C138.244 70.608 138.673 70.72 139.028 70.944C139.392 71.1587 139.667 71.4947 139.854 71.952H139.91V67.64H141.03V78H139.91V76.824ZM138.048 77.16C138.3 77.16 138.538 77.1273 138.762 77.062C138.995 76.9967 139.196 76.9033 139.364 76.782C139.532 76.6513 139.662 76.4973 139.756 76.32C139.858 76.1333 139.91 75.9233 139.91 75.69V73.002C139.91 72.806 139.858 72.624 139.756 72.456C139.662 72.2787 139.532 72.1293 139.364 72.008C139.196 71.8867 138.995 71.7933 138.762 71.728C138.538 71.6533 138.3 71.616 138.048 71.616C137.413 71.616 136.914 71.8167 136.55 72.218C136.186 72.61 136.004 73.128 136.004 73.772V75.004C136.004 75.648 136.186 76.1707 136.55 76.572C136.914 76.964 137.413 77.16 138.048 77.16ZM148.143 76.824H148.087C148.012 76.992 147.919 77.16 147.807 77.328C147.704 77.4867 147.574 77.6313 147.415 77.762C147.256 77.8833 147.065 77.9813 146.841 78.056C146.617 78.1307 146.356 78.168 146.057 78.168C145.31 78.168 144.718 77.93 144.279 77.454C143.84 76.9687 143.621 76.2873 143.621 75.41V70.776H144.741V75.214C144.741 76.5113 145.292 77.16 146.393 77.16C146.617 77.16 146.832 77.132 147.037 77.076C147.252 77.02 147.438 76.936 147.597 76.824C147.765 76.712 147.896 76.572 147.989 76.404C148.092 76.2267 148.143 76.0167 148.143 75.774V70.776H149.263V78H148.143V76.824ZM154.616 78.168C154.112 78.168 153.659 78.0793 153.258 77.902C152.857 77.7247 152.516 77.4727 152.236 77.146C151.965 76.8193 151.755 76.4227 151.606 75.956C151.466 75.4893 151.396 74.9667 151.396 74.388C151.396 73.8093 151.466 73.2867 151.606 72.82C151.755 72.3533 151.965 71.9567 152.236 71.63C152.516 71.3033 152.857 71.0513 153.258 70.874C153.659 70.6967 154.112 70.608 154.616 70.608C155.335 70.608 155.909 70.7667 156.338 71.084C156.777 71.392 157.103 71.798 157.318 72.302L156.38 72.778C156.249 72.4047 156.035 72.1153 155.736 71.91C155.437 71.7047 155.064 71.602 154.616 71.602C154.28 71.602 153.986 71.658 153.734 71.77C153.482 71.8727 153.272 72.022 153.104 72.218C152.936 72.4047 152.81 72.6333 152.726 72.904C152.642 73.1653 152.6 73.4547 152.6 73.772V75.004C152.6 75.6387 152.768 76.1613 153.104 76.572C153.449 76.9733 153.953 77.174 154.616 77.174C155.521 77.174 156.175 76.754 156.576 75.914L157.388 76.46C157.155 76.9827 156.805 77.398 156.338 77.706C155.881 78.014 155.307 78.168 154.616 78.168ZM160.845 78C160.453 78 160.154 77.8927 159.949 77.678C159.753 77.454 159.655 77.1647 159.655 76.81V71.756H158.465V70.776H159.137C159.38 70.776 159.543 70.7293 159.627 70.636C159.72 70.5333 159.767 70.3607 159.767 70.118V68.774H160.775V70.776H162.357V71.756H160.775V77.02H162.245V78H160.845ZM168.138 68.228H171.414C172.02 68.228 172.571 68.3307 173.066 68.536C173.56 68.7413 173.98 69.0493 174.326 69.46C174.68 69.8613 174.951 70.37 175.138 70.986C175.324 71.5927 175.418 72.302 175.418 73.114C175.418 73.926 175.324 74.64 175.138 75.256C174.951 75.8627 174.68 76.3713 174.326 76.782C173.98 77.1833 173.56 77.4867 173.066 77.692C172.571 77.8973 172.02 78 171.414 78H168.138V68.228ZM171.414 76.964C171.815 76.964 172.184 76.8987 172.52 76.768C172.856 76.628 173.145 76.4273 173.388 76.166C173.63 75.9047 173.817 75.5873 173.948 75.214C174.088 74.8313 174.158 74.3973 174.158 73.912V72.316C174.158 71.8307 174.088 71.4013 173.948 71.028C173.817 70.6453 173.63 70.3233 173.388 70.062C173.145 69.8007 172.856 69.6047 172.52 69.474C172.184 69.334 171.815 69.264 171.414 69.264H169.314V76.964H171.414ZM180.414 78.168C179.92 78.168 179.472 78.0793 179.07 77.902C178.678 77.7247 178.338 77.4727 178.048 77.146C177.768 76.81 177.549 76.4133 177.39 75.956C177.241 75.4893 177.166 74.9667 177.166 74.388C177.166 73.8187 177.241 73.3007 177.39 72.834C177.549 72.3673 177.768 71.9707 178.048 71.644C178.338 71.308 178.678 71.0513 179.07 70.874C179.472 70.6967 179.92 70.608 180.414 70.608C180.9 70.608 181.334 70.6967 181.716 70.874C182.099 71.0513 182.426 71.2987 182.696 71.616C182.967 71.924 183.172 72.2927 183.312 72.722C183.462 73.1513 183.536 73.6227 183.536 74.136V74.668H178.342V75.004C178.342 75.312 178.389 75.6013 178.482 75.872C178.585 76.1333 178.725 76.362 178.902 76.558C179.089 76.754 179.313 76.908 179.574 77.02C179.845 77.132 180.148 77.188 180.484 77.188C180.942 77.188 181.338 77.0807 181.674 76.866C182.02 76.6513 182.286 76.3433 182.472 75.942L183.27 76.516C183.037 77.0107 182.673 77.412 182.178 77.72C181.684 78.0187 181.096 78.168 180.414 78.168ZM180.414 71.546C180.106 71.546 179.826 71.602 179.574 71.714C179.322 71.8167 179.103 71.966 178.916 72.162C178.739 72.358 178.599 72.5913 178.496 72.862C178.394 73.1233 178.342 73.4127 178.342 73.73V73.828H182.332V73.674C182.332 73.03 182.155 72.5167 181.8 72.134C181.455 71.742 180.993 71.546 180.414 71.546ZM187.832 78.168C187.16 78.168 186.595 78.042 186.138 77.79C185.69 77.5287 185.303 77.1833 184.976 76.754L185.774 76.11C186.054 76.4647 186.367 76.74 186.712 76.936C187.057 77.1227 187.459 77.216 187.916 77.216C188.392 77.216 188.761 77.1133 189.022 76.908C189.293 76.7027 189.428 76.4133 189.428 76.04C189.428 75.76 189.335 75.522 189.148 75.326C188.971 75.1207 188.644 74.9807 188.168 74.906L187.594 74.822C187.258 74.7753 186.95 74.7053 186.67 74.612C186.39 74.5093 186.143 74.3787 185.928 74.22C185.723 74.052 185.559 73.8467 185.438 73.604C185.326 73.3613 185.27 73.072 185.27 72.736C185.27 72.3813 185.335 72.0733 185.466 71.812C185.597 71.5413 185.774 71.3173 185.998 71.14C186.231 70.9627 186.507 70.832 186.824 70.748C187.141 70.6547 187.482 70.608 187.846 70.608C188.434 70.608 188.924 70.7107 189.316 70.916C189.717 71.1213 190.067 71.406 190.366 71.77L189.624 72.442C189.465 72.218 189.232 72.0173 188.924 71.84C188.616 71.6533 188.229 71.56 187.762 71.56C187.295 71.56 186.941 71.6627 186.698 71.868C186.465 72.064 186.348 72.3347 186.348 72.68C186.348 73.0347 186.465 73.2913 186.698 73.45C186.941 73.6087 187.286 73.7253 187.734 73.8L188.294 73.884C189.097 74.0053 189.666 74.2387 190.002 74.584C190.338 74.92 190.506 75.3633 190.506 75.914C190.506 76.614 190.268 77.1647 189.792 77.566C189.316 77.9673 188.663 78.168 187.832 78.168ZM193.324 69.082C193.081 69.082 192.904 69.026 192.792 68.914C192.689 68.7927 192.638 68.6387 192.638 68.452V68.27C192.638 68.0833 192.689 67.934 192.792 67.822C192.904 67.7007 193.081 67.64 193.324 67.64C193.567 67.64 193.739 67.7007 193.842 67.822C193.954 67.934 194.01 68.0833 194.01 68.27V68.452C194.01 68.6387 193.954 68.7927 193.842 68.914C193.739 69.026 193.567 69.082 193.324 69.082ZM192.764 70.776H193.884V78H192.764V70.776ZM202.634 78.798C202.634 79.5447 202.34 80.0907 201.752 80.436C201.173 80.7907 200.301 80.968 199.134 80.968C198.005 80.968 197.193 80.814 196.698 80.506C196.203 80.198 195.956 79.7593 195.956 79.19C195.956 78.798 196.059 78.49 196.264 78.266C196.469 78.0513 196.749 77.8927 197.104 77.79V77.636C196.675 77.4307 196.46 77.0947 196.46 76.628C196.46 76.264 196.577 75.9887 196.81 75.802C197.043 75.606 197.342 75.4613 197.706 75.368V75.312C197.277 75.1067 196.941 74.8127 196.698 74.43C196.465 74.0473 196.348 73.604 196.348 73.1C196.348 72.736 196.413 72.4 196.544 72.092C196.675 71.784 196.857 71.5227 197.09 71.308C197.333 71.084 197.617 70.9113 197.944 70.79C198.28 70.6687 198.653 70.608 199.064 70.608C199.577 70.608 200.035 70.7013 200.436 70.888V70.762C200.436 70.482 200.501 70.2533 200.632 70.076C200.763 69.8893 200.977 69.796 201.276 69.796H202.354V70.776H200.982V71.238C201.243 71.462 201.444 71.7327 201.584 72.05C201.733 72.358 201.808 72.708 201.808 73.1C201.808 73.464 201.743 73.8 201.612 74.108C201.481 74.416 201.295 74.682 201.052 74.906C200.819 75.1207 200.534 75.2887 200.198 75.41C199.862 75.5313 199.489 75.592 199.078 75.592C198.845 75.592 198.611 75.5687 198.378 75.522C198.135 75.5873 197.916 75.6853 197.72 75.816C197.524 75.9373 197.426 76.11 197.426 76.334C197.426 76.5487 197.529 76.6933 197.734 76.768C197.939 76.8427 198.205 76.88 198.532 76.88H200.072C200.968 76.88 201.617 77.0527 202.018 77.398C202.429 77.734 202.634 78.2007 202.634 78.798ZM201.584 78.882C201.584 78.5927 201.472 78.3593 201.248 78.182C201.033 78.014 200.646 77.93 200.086 77.93H197.678C197.23 78.1353 197.006 78.462 197.006 78.91C197.006 79.2273 197.123 79.498 197.356 79.722C197.599 79.946 198.005 80.058 198.574 80.058H199.61C200.235 80.058 200.721 79.96 201.066 79.764C201.411 79.568 201.584 79.274 201.584 78.882ZM199.078 74.696C199.554 74.696 199.932 74.584 200.212 74.36C200.492 74.1267 200.632 73.772 200.632 73.296V72.904C200.632 72.428 200.492 72.078 200.212 71.854C199.932 71.6207 199.554 71.504 199.078 71.504C198.602 71.504 198.224 71.6207 197.944 71.854C197.664 72.078 197.524 72.428 197.524 72.904V73.296C197.524 73.772 197.664 74.1267 197.944 74.36C198.224 74.584 198.602 74.696 199.078 74.696ZM204.221 78V70.776H205.341V71.952H205.397C205.574 71.5413 205.821 71.2147 206.139 70.972C206.465 70.7293 206.899 70.608 207.441 70.608C208.187 70.608 208.775 70.8507 209.205 71.336C209.643 71.812 209.863 72.4887 209.863 73.366V78H208.743V73.562C208.743 72.2647 208.197 71.616 207.105 71.616C206.881 71.616 206.661 71.644 206.447 71.7C206.241 71.756 206.055 71.84 205.887 71.952C205.719 72.064 205.583 72.2087 205.481 72.386C205.387 72.554 205.341 72.7547 205.341 72.988V78H204.221ZM215.174 78.168C214.679 78.168 214.231 78.0793 213.83 77.902C213.438 77.7247 213.097 77.4727 212.808 77.146C212.528 76.81 212.308 76.4133 212.15 75.956C212 75.4893 211.926 74.9667 211.926 74.388C211.926 73.8187 212 73.3007 212.15 72.834C212.308 72.3673 212.528 71.9707 212.808 71.644C213.097 71.308 213.438 71.0513 213.83 70.874C214.231 70.6967 214.679 70.608 215.174 70.608C215.659 70.608 216.093 70.6967 216.476 70.874C216.858 71.0513 217.185 71.2987 217.456 71.616C217.726 71.924 217.932 72.2927 218.072 72.722C218.221 73.1513 218.296 73.6227 218.296 74.136V74.668H213.102V75.004C213.102 75.312 213.148 75.6013 213.242 75.872C213.344 76.1333 213.484 76.362 213.662 76.558C213.848 76.754 214.072 76.908 214.334 77.02C214.604 77.132 214.908 77.188 215.244 77.188C215.701 77.188 216.098 77.0807 216.434 76.866C216.779 76.6513 217.045 76.3433 217.232 75.942L218.03 76.516C217.796 77.0107 217.432 77.412 216.938 77.72C216.443 78.0187 215.855 78.168 215.174 78.168ZM215.174 71.546C214.866 71.546 214.586 71.602 214.334 71.714C214.082 71.8167 213.862 71.966 213.676 72.162C213.498 72.358 213.358 72.5913 213.256 72.862C213.153 73.1233 213.102 73.4127 213.102 73.73V73.828H217.092V73.674C217.092 73.03 216.914 72.5167 216.56 72.134C216.214 71.742 215.752 71.546 215.174 71.546ZM220.421 78V70.776H221.541V72.106H221.611C221.742 71.7607 221.975 71.4527 222.311 71.182C222.647 70.9113 223.109 70.776 223.697 70.776H224.131V71.896H223.473C222.867 71.896 222.391 72.0127 222.045 72.246C221.709 72.47 221.541 72.7547 221.541 73.1V78H220.421ZM229.542 78V68.228H233.434C234.312 68.228 234.984 68.48 235.45 68.984C235.926 69.4787 236.164 70.16 236.164 71.028C236.164 71.896 235.926 72.582 235.45 73.086C234.984 73.5807 234.312 73.828 233.434 73.828H230.718V78H229.542ZM230.718 72.792H233.434C233.901 72.792 234.26 72.6707 234.512 72.428C234.774 72.1853 234.904 71.84 234.904 71.392V70.664C234.904 70.216 234.774 69.8707 234.512 69.628C234.26 69.3853 233.901 69.264 233.434 69.264H230.718V72.792ZM240.657 78.168C240.172 78.168 239.729 78.0793 239.327 77.902C238.926 77.7247 238.581 77.4727 238.291 77.146C238.011 76.81 237.792 76.4133 237.633 75.956C237.475 75.4893 237.395 74.9667 237.395 74.388C237.395 73.8187 237.475 73.3007 237.633 72.834C237.792 72.3673 238.011 71.9707 238.291 71.644C238.581 71.308 238.926 71.0513 239.327 70.874C239.729 70.6967 240.172 70.608 240.657 70.608C241.143 70.608 241.581 70.6967 241.973 70.874C242.375 71.0513 242.72 71.308 243.009 71.644C243.299 71.9707 243.523 72.3673 243.681 72.834C243.84 73.3007 243.919 73.8187 243.919 74.388C243.919 74.9667 243.84 75.4893 243.681 75.956C243.523 76.4133 243.299 76.81 243.009 77.146C242.72 77.4727 242.375 77.7247 241.973 77.902C241.581 78.0793 241.143 78.168 240.657 78.168ZM240.657 77.174C241.264 77.174 241.759 76.9873 242.141 76.614C242.524 76.2407 242.715 75.6713 242.715 74.906V73.87C242.715 73.1047 242.524 72.5353 242.141 72.162C241.759 71.7887 241.264 71.602 240.657 71.602C240.051 71.602 239.556 71.7887 239.173 72.162C238.791 72.5353 238.599 73.1047 238.599 73.87V74.906C238.599 75.6713 238.791 76.2407 239.173 76.614C239.556 76.9873 240.051 77.174 240.657 77.174ZM246.041 78V70.776H247.161V72.106H247.231C247.362 71.7607 247.595 71.4527 247.931 71.182C248.267 70.9113 248.729 70.776 249.317 70.776H249.751V71.896H249.093C248.487 71.896 248.011 72.0127 247.665 72.246C247.329 72.47 247.161 72.7547 247.161 73.1V78H246.041ZM253.113 78C252.721 78 252.422 77.8927 252.217 77.678C252.021 77.454 251.923 77.1647 251.923 76.81V71.756H250.733V70.776H251.405C251.647 70.776 251.811 70.7293 251.895 70.636C251.988 70.5333 252.035 70.3607 252.035 70.118V68.774H253.043V70.776H254.625V71.756H253.043V77.02H254.513V78H253.113ZM256.96 71.756H255.784V70.776H256.96V69.32C256.96 68.816 257.091 68.41 257.352 68.102C257.613 67.794 258.01 67.64 258.542 67.64H259.634V68.62H258.08V70.776H259.634V71.756H258.08V78H256.96V71.756ZM264.062 78.168C263.577 78.168 263.134 78.0793 262.732 77.902C262.331 77.7247 261.986 77.4727 261.696 77.146C261.416 76.81 261.197 76.4133 261.038 75.956C260.88 75.4893 260.8 74.9667 260.8 74.388C260.8 73.8187 260.88 73.3007 261.038 72.834C261.197 72.3673 261.416 71.9707 261.696 71.644C261.986 71.308 262.331 71.0513 262.732 70.874C263.134 70.6967 263.577 70.608 264.062 70.608C264.548 70.608 264.986 70.6967 265.378 70.874C265.78 71.0513 266.125 71.308 266.414 71.644C266.704 71.9707 266.928 72.3673 267.086 72.834C267.245 73.3007 267.324 73.8187 267.324 74.388C267.324 74.9667 267.245 75.4893 267.086 75.956C266.928 76.4133 266.704 76.81 266.414 77.146C266.125 77.4727 265.78 77.7247 265.378 77.902C264.986 78.0793 264.548 78.168 264.062 78.168ZM264.062 77.174C264.669 77.174 265.164 76.9873 265.546 76.614C265.929 76.2407 266.12 75.6713 266.12 74.906V73.87C266.12 73.1047 265.929 72.5353 265.546 72.162C265.164 71.7887 264.669 71.602 264.062 71.602C263.456 71.602 262.961 71.7887 262.578 72.162C262.196 72.5353 262.004 73.1047 262.004 73.87V74.906C262.004 75.6713 262.196 76.2407 262.578 76.614C262.961 76.9873 263.456 77.174 264.062 77.174ZM270.636 78C270.244 78 269.946 77.8927 269.74 77.678C269.544 77.454 269.446 77.174 269.446 76.838V67.64H270.566V77.02H271.63V78H270.636ZM274.101 69.082C273.858 69.082 273.681 69.026 273.569 68.914C273.466 68.7927 273.415 68.6387 273.415 68.452V68.27C273.415 68.0833 273.466 67.934 273.569 67.822C273.681 67.7007 273.858 67.64 274.101 67.64C274.344 67.64 274.516 67.7007 274.619 67.822C274.731 67.934 274.787 68.0833 274.787 68.27V68.452C274.787 68.6387 274.731 68.7927 274.619 68.914C274.516 69.026 274.344 69.082 274.101 69.082ZM273.541 70.776H274.661V78H273.541V70.776ZM280.051 78.168C279.566 78.168 279.122 78.0793 278.721 77.902C278.32 77.7247 277.974 77.4727 277.685 77.146C277.405 76.81 277.186 76.4133 277.027 75.956C276.868 75.4893 276.789 74.9667 276.789 74.388C276.789 73.8187 276.868 73.3007 277.027 72.834C277.186 72.3673 277.405 71.9707 277.685 71.644C277.974 71.308 278.32 71.0513 278.721 70.874C279.122 70.6967 279.566 70.608 280.051 70.608C280.536 70.608 280.975 70.6967 281.367 70.874C281.768 71.0513 282.114 71.308 282.403 71.644C282.692 71.9707 282.916 72.3673 283.075 72.834C283.234 73.3007 283.313 73.8187 283.313 74.388C283.313 74.9667 283.234 75.4893 283.075 75.956C282.916 76.4133 282.692 76.81 282.403 77.146C282.114 77.4727 281.768 77.7247 281.367 77.902C280.975 78.0793 280.536 78.168 280.051 78.168ZM280.051 77.174C280.658 77.174 281.152 76.9873 281.535 76.614C281.918 76.2407 282.109 75.6713 282.109 74.906V73.87C282.109 73.1047 281.918 72.5353 281.535 72.162C281.152 71.7887 280.658 71.602 280.051 71.602C279.444 71.602 278.95 71.7887 278.567 72.162C278.184 72.5353 277.993 73.1047 277.993 73.87V74.906C277.993 75.6713 278.184 76.2407 278.567 76.614C278.95 76.9873 279.444 77.174 280.051 77.174Z" fill="white"/>
<defs>
<linearGradient id="paint0_linear_1561_315" x1="-5.45021e-06" y1="59.5014" x2="861" y2="59.5013" gradientUnits="userSpaceOnUse">
<stop stop-color="#021826"/>
<stop offset="1" stop-color="#00080D"/>
</linearGradient>
</defs>
</svg>
