<svg width="256" height="256" viewBox="0 0 256 256" fill="none" xmlns="http://www.w3.org/2000/svg">
<mask id="mask0_1982_2855" style="mask-type:alpha" maskUnits="userSpaceOnUse" x="0" y="0" width="256" height="256">
<rect width="256" height="256" fill="#000B12"/>
</mask>
<g mask="url(#mask0_1982_2855)">
<path fill-rule="evenodd" clip-rule="evenodd" d="M0.00209384 127.667C0.270889 25.2688 25.9344 -0.266703 128.333 0.00209281C230.731 0.270888 256.267 25.9345 255.998 128.332C255.729 230.731 230.053 256.267 127.655 255.998C25.256 255.729 -0.266702 230.066 0.00209384 127.667Z" fill="#000507"/>
<path fill-rule="evenodd" clip-rule="evenodd" d="M51.2 121.308V67.1217C55.9264 61.2193 61.3226 55.8734 67.2747 51.2V81.3135C81.3244 63.2476 103.302 51.6186 128.001 51.6186C149.186 51.6186 168.366 60.1728 182.262 74.0061L169.204 83.7226C158.378 73.7456 143.904 67.6494 128.001 67.6494C94.4632 67.6494 67.2747 94.7638 67.2747 128.21H51.2L51.2 121.308ZM182.945 102.387L196.037 92.6464C201.634 103.274 204.8 115.372 204.8 128.21C204.8 170.289 170.775 204.442 128.669 204.8V188.769C161.899 188.411 188.725 161.437 188.725 128.213C188.725 118.977 186.651 110.222 182.943 102.39L182.945 102.387ZM167.295 128.21C167.295 149.852 149.702 167.397 128.001 167.397C119.314 167.397 111.288 164.587 104.782 159.827V184.187C98.9015 181.678 93.4853 178.247 88.7075 174.063V128.21C88.7075 106.569 106.3 89.0239 128.001 89.0239C149.702 89.0239 167.295 106.569 167.295 128.21ZM104.782 128.21C104.782 140.999 115.177 151.366 128.001 151.366C140.825 151.366 151.22 140.999 151.22 128.21C151.22 115.421 140.825 105.055 128.001 105.055C115.177 105.055 104.782 115.421 104.782 128.21Z" fill="#25B8B8"/>
</g>
</svg>
