<svg width="88" height="88" viewBox="0 0 88 88" fill="none" xmlns="http://www.w3.org/2000/svg">
<g clip-path="url(#clip0_1566_175)">
<mask id="mask0_1566_175" style="mask-type:alpha" maskUnits="userSpaceOnUse" x="0" y="0" width="88" height="88">
<rect width="88" height="88" fill="#00080D"/>
</mask>
<g mask="url(#mask0_1566_175)">
<path fill-rule="evenodd" clip-rule="evenodd" d="M0.000719758 43.8857C0.0931182 8.68617 8.91497 -0.091679 44.1145 0.000719402C79.3139 0.0931178 88.0917 8.91497 87.9993 44.1143C87.9069 79.3137 79.0807 88.0917 43.8813 87.9993C8.68176 87.9069 -0.0916788 79.0851 0.000719758 43.8857Z" fill="#000507"/>
<path fill-rule="evenodd" clip-rule="evenodd" d="M17.6 41.6997V23.0731C19.2247 21.0441 21.0796 19.2065 23.1256 17.6V27.9515C27.9551 21.7414 35.5098 17.7439 44 17.7439C51.7174 17.7439 58.662 21.0464 63.4892 26.3121L58.5568 29.1516C54.7963 25.5024 49.6614 23.2545 44 23.2545C32.4715 23.2545 23.1256 32.5751 23.1256 44.0723H17.6L17.6 41.6997ZM63.9857 38.0443L68.8743 35.2301C69.862 37.9938 70.4 40.9703 70.4 44.0723C70.4 58.5369 58.7042 70.2768 44.2302 70.4V64.8894C55.6528 64.7662 64.8744 55.4938 64.8744 44.0731C64.8744 41.9775 64.5636 39.9539 63.9857 38.0451V38.0443ZM57.507 44.0723C57.507 51.5116 51.4595 57.5427 44 57.5427C41.0139 57.5427 38.2549 56.5768 36.0186 54.9405V63.3143C33.9971 62.4517 32.1353 61.2723 30.493 59.8342V44.0723C30.493 36.633 36.5404 30.602 44 30.602C51.4595 30.602 57.507 36.633 57.507 44.0723ZM36.0186 44.0723C36.0186 48.4686 39.5918 52.0321 44 52.0321C48.4082 52.0321 51.9814 48.4686 51.9814 44.0723C51.9814 39.6761 48.4082 36.1126 44 36.1126C39.5918 36.1126 36.0186 39.6761 36.0186 44.0723Z" fill="#00B8B8"/>
</g>
</g>
<defs>
<clipPath id="clip0_1566_175">
<rect width="88" height="88" rx="8" fill="white"/>
</clipPath>
</defs>
</svg>
