<svg width="108" height="108" viewBox="0 0 108 108" fill="none" xmlns="http://www.w3.org/2000/svg">
<g clip-path="url(#clip0_1566_175)">
<mask id="mask0_1566_175" style="mask-type:alpha" maskUnits="userSpaceOnUse" x="0" y="0" width="108" height="108">
<rect width="108" height="108" fill="#00080D"/>
</mask>
<g mask="url(#mask0_1566_175)">
<path fill-rule="evenodd" clip-rule="evenodd" d="M0.000883339 53.8597C0.114281 10.6603 10.9411 -0.112515 54.1405 0.000882902C97.3398 0.114281 108.113 10.9411 107.999 54.1402C107.886 97.3395 97.0536 108.113 53.8543 107.999C10.6549 107.886 -0.112515 97.059 0.000883339 53.8597Z" fill="#000507"/>
<path fill-rule="evenodd" clip-rule="evenodd" d="M21.6 51.1769V28.317C23.5939 25.8269 25.8704 23.5716 28.3814 21.6V34.3041C34.3085 26.6826 43.5802 21.7766 54 21.7766C63.4713 21.7766 71.9942 25.8297 77.9185 32.2921L71.8652 35.777C67.2501 31.2983 60.9481 28.5396 54 28.5396C39.8513 28.5396 28.3814 39.9785 28.3814 54.0888H21.6L21.6 51.1769ZM78.5279 46.6908L84.5276 43.2369C85.7397 46.6288 86.4 50.2818 86.4 54.0888C86.4 71.8407 72.046 86.2488 54.2825 86.4V79.637C68.3012 79.4858 79.6186 68.1061 79.6186 54.0897C79.6186 51.5179 79.2371 49.0344 78.5279 46.6917V46.6908ZM70.5767 54.0888C70.5767 63.2188 63.1549 70.6206 54 70.6206C50.3352 70.6206 46.9492 69.4352 44.2046 67.4269V77.7039C41.7238 76.6453 39.4388 75.1978 37.4232 73.4329V54.0888C37.4232 44.9587 44.8451 37.557 54 37.557C63.1549 37.557 70.5767 44.9587 70.5767 54.0888ZM44.2046 54.0888C44.2046 59.4841 48.5899 63.8576 54 63.8576C59.41 63.8576 63.7953 59.4841 63.7953 54.0888C63.7953 48.6934 59.41 44.32 54 44.32C48.5899 44.32 44.2046 48.6934 44.2046 54.0888Z" fill="#00B8B8"/>
</g>
</g>
<defs>
<clipPath id="clip0_1566_175">
<rect width="108" height="108" rx="8" fill="white"/>
</clipPath>
</defs>
</svg>
