<svg width="861" height="119" viewBox="0 0 861 119" fill="none" xmlns="http://www.w3.org/2000/svg">
<rect width="861" height="119" rx="16" fill="url(#paint0_linear_974_301)"/>
<path fill-rule="evenodd" clip-rule="evenodd" d="M774.96 33.864H767.92V66.952H774.96V60.7039H774.962C775.099 50.0978 783.465 41.476 793.968 40.9312V33.8842C786.439 34.1726 779.698 37.5319 774.96 42.7452V33.864ZM796.08 88.1398C810.472 87.5884 821.988 75.8147 822.127 61.3199H815.086C814.949 71.9261 806.583 80.5479 796.08 81.0926V88.1398ZM795.024 73.9918C802.217 73.9918 808.048 68.1608 808.048 60.9678C808.048 53.7749 802.217 47.9438 795.024 47.9438C787.949 47.9438 782.191 53.5856 782.005 60.6158H782V81.0318H789.04V72.5388C790.832 73.4673 792.867 73.9918 795.024 73.9918ZM789.04 60.9678L789.04 60.9654C789.041 57.6616 791.72 54.9838 795.024 54.9838C798.329 54.9838 801.008 57.6629 801.008 60.9678C801.008 64.2727 798.329 66.9518 795.024 66.9518C791.72 66.9518 789.041 64.274 789.04 60.9702L789.04 60.9678Z" fill="white"/>
<path d="M33.464 52V34.3H40.64C42.496 34.3 43.88 34.724 44.792 35.572C45.712 36.412 46.172 37.624 46.172 39.208C46.172 40.12 45.996 40.9 45.644 41.548C45.3 42.188 44.872 42.684 44.36 43.036C43.856 43.388 43.368 43.584 42.896 43.624C43.384 43.656 43.844 43.78 44.276 43.996C44.716 44.204 45.076 44.536 45.356 44.992C45.636 45.448 45.776 46.06 45.776 46.828C45.776 47.396 45.776 47.956 45.776 48.508C45.776 49.06 45.776 49.624 45.776 50.2C45.776 50.592 45.804 50.956 45.86 51.292C45.924 51.62 46.016 51.856 46.136 52H42.404C42.3 51.84 42.216 51.6 42.152 51.28C42.088 50.952 42.056 50.592 42.056 50.2C42.056 49.688 42.056 49.2 42.056 48.736C42.056 48.264 42.056 47.772 42.056 47.26C42.056 46.564 41.876 46.028 41.516 45.652C41.156 45.268 40.58 45.076 39.788 45.076H36.116L37.112 43.888V52H33.464ZM37.112 43.552L36.116 42.196H39.836C40.316 42.196 40.744 42.088 41.12 41.872C41.496 41.656 41.792 41.348 42.008 40.948C42.232 40.548 42.344 40.08 42.344 39.544C42.344 38.792 42.116 38.208 41.66 37.792C41.212 37.376 40.58 37.168 39.764 37.168H36.032L37.112 35.956V43.552ZM52.8658 52.264C51.9378 52.264 51.1098 52.116 50.3818 51.82C49.6618 51.524 49.0978 51.096 48.6898 50.536C48.2818 49.976 48.0778 49.296 48.0778 48.496C48.0778 47.592 48.3258 46.856 48.8218 46.288C49.3178 45.72 49.9738 45.288 50.7898 44.992C51.6138 44.688 52.5058 44.488 53.4658 44.392C54.8658 44.256 55.8298 44.132 56.3578 44.02C56.8938 43.908 57.1618 43.712 57.1618 43.432C57.1618 43.424 57.1618 43.416 57.1618 43.408C57.1618 42.936 56.9338 42.564 56.4778 42.292C56.0298 42.02 55.4018 41.884 54.5938 41.884C53.7378 41.884 53.0818 42.04 52.6258 42.352C52.1778 42.656 51.9538 43.124 51.9538 43.756H48.2938C48.2938 42.732 48.5698 41.868 49.1218 41.164C49.6818 40.46 50.4378 39.928 51.3898 39.568C52.3418 39.2 53.4178 39.016 54.6178 39.016C55.7378 39.016 56.7738 39.188 57.7258 39.532C58.6778 39.868 59.4418 40.376 60.0178 41.056C60.6018 41.736 60.8938 42.6 60.8938 43.648C60.8938 43.816 60.8938 43.984 60.8938 44.152C60.8938 44.312 60.8938 44.476 60.8938 44.644V49.156C60.8938 49.484 60.9018 49.8 60.9178 50.104C60.9418 50.4 60.9898 50.672 61.0618 50.92C61.1418 51.2 61.2418 51.432 61.3618 51.616C61.4818 51.8 61.5818 51.928 61.6618 52H58.0018C57.9458 51.944 57.8578 51.828 57.7378 51.652C57.6258 51.476 57.5298 51.272 57.4498 51.04C57.3538 50.76 57.2818 50.48 57.2338 50.2C57.1938 49.912 57.1738 49.576 57.1738 49.192L57.9418 49.72C57.7178 50.248 57.3538 50.704 56.8498 51.088C56.3538 51.464 55.7618 51.756 55.0738 51.964C54.3938 52.164 53.6578 52.264 52.8658 52.264ZM53.8618 49.48C54.4458 49.48 54.9898 49.376 55.4938 49.168C56.0058 48.952 56.4218 48.616 56.7418 48.16C57.0618 47.704 57.2218 47.108 57.2218 46.372V45.088L58.1458 45.988C57.6178 46.18 57.0058 46.34 56.3098 46.468C55.6218 46.588 54.9338 46.684 54.2458 46.756C53.4298 46.836 52.8178 46.976 52.4098 47.176C52.0098 47.368 51.8098 47.696 51.8098 48.16C51.8098 48.6 51.9818 48.932 52.3258 49.156C52.6698 49.372 53.1818 49.48 53.8618 49.48ZM65.1641 52V42.136H62.5121V39.256H65.1641V38.38C65.1641 37.532 65.2761 36.808 65.5001 36.208C65.7321 35.6 66.0441 35.096 66.4361 34.696C66.8281 34.288 67.2681 33.968 67.7561 33.736C68.2521 33.496 68.7601 33.328 69.2801 33.232C69.8081 33.128 70.3201 33.076 70.8161 33.076C71.3441 33.076 71.7361 33.108 71.9921 33.172C72.2561 33.228 72.4321 33.276 72.5201 33.316V36.208C72.4241 36.176 72.2521 36.14 72.0041 36.1C71.7641 36.06 71.5041 36.04 71.2241 36.04C70.7601 36.04 70.3761 36.1 70.0721 36.22C69.7681 36.34 69.5281 36.516 69.3521 36.748C69.1761 36.972 69.0521 37.24 68.9801 37.552C68.9081 37.856 68.8721 38.188 68.8721 38.548V39.256H72.2921V42.136H68.8721V52H65.1641ZM78.0142 52.264C77.0862 52.264 76.2582 52.116 75.5302 51.82C74.8102 51.524 74.2462 51.096 73.8382 50.536C73.4302 49.976 73.2262 49.296 73.2262 48.496C73.2262 47.592 73.4742 46.856 73.9702 46.288C74.4662 45.72 75.1222 45.288 75.9382 44.992C76.7622 44.688 77.6542 44.488 78.6142 44.392C80.0142 44.256 80.9782 44.132 81.5062 44.02C82.0422 43.908 82.3102 43.712 82.3102 43.432C82.3102 43.424 82.3102 43.416 82.3102 43.408C82.3102 42.936 82.0822 42.564 81.6262 42.292C81.1782 42.02 80.5502 41.884 79.7422 41.884C78.8862 41.884 78.2302 42.04 77.7742 42.352C77.3262 42.656 77.1022 43.124 77.1022 43.756H73.4422C73.4422 42.732 73.7182 41.868 74.2702 41.164C74.8302 40.46 75.5862 39.928 76.5382 39.568C77.4902 39.2 78.5662 39.016 79.7662 39.016C80.8862 39.016 81.9222 39.188 82.8742 39.532C83.8262 39.868 84.5902 40.376 85.1662 41.056C85.7502 41.736 86.0422 42.6 86.0422 43.648C86.0422 43.816 86.0422 43.984 86.0422 44.152C86.0422 44.312 86.0422 44.476 86.0422 44.644V49.156C86.0422 49.484 86.0502 49.8 86.0662 50.104C86.0902 50.4 86.1382 50.672 86.2102 50.92C86.2902 51.2 86.3902 51.432 86.5102 51.616C86.6302 51.8 86.7302 51.928 86.8102 52H83.1502C83.0942 51.944 83.0062 51.828 82.8862 51.652C82.7742 51.476 82.6782 51.272 82.5982 51.04C82.5022 50.76 82.4302 50.48 82.3822 50.2C82.3422 49.912 82.3222 49.576 82.3222 49.192L83.0902 49.72C82.8662 50.248 82.5022 50.704 81.9982 51.088C81.5022 51.464 80.9102 51.756 80.2222 51.964C79.5422 52.164 78.8062 52.264 78.0142 52.264ZM79.0102 49.48C79.5942 49.48 80.1382 49.376 80.6422 49.168C81.1542 48.952 81.5702 48.616 81.8902 48.16C82.2102 47.704 82.3702 47.108 82.3702 46.372V45.088L83.2942 45.988C82.7662 46.18 82.1542 46.34 81.4582 46.468C80.7702 46.588 80.0822 46.684 79.3942 46.756C78.5782 46.836 77.9662 46.976 77.5582 47.176C77.1582 47.368 76.9582 47.696 76.9582 48.16C76.9582 48.6 77.1302 48.932 77.4742 49.156C77.8182 49.372 78.3302 49.48 79.0102 49.48ZM90.1925 46.744V44.284H98.6405L98.2805 44.908C98.2805 44.844 98.2805 44.784 98.2805 44.728C98.2805 44.664 98.2805 44.604 98.2805 44.548C98.2805 44.092 98.1725 43.656 97.9565 43.24C97.7405 42.816 97.4045 42.472 96.9485 42.208C96.5005 41.936 95.9245 41.8 95.2205 41.8C94.5165 41.8 93.9085 41.952 93.3965 42.256C92.8925 42.552 92.5045 42.98 92.2325 43.54C91.9685 44.1 91.8365 44.776 91.8365 45.568C91.8365 46.384 91.9645 47.084 92.2205 47.668C92.4845 48.244 92.8725 48.688 93.3845 49C93.9045 49.312 94.5485 49.468 95.3165 49.468C95.8125 49.468 96.2405 49.424 96.6005 49.336C96.9605 49.24 97.2525 49.12 97.4765 48.976C97.7085 48.832 97.8845 48.672 98.0045 48.496C98.1245 48.32 98.1965 48.148 98.2205 47.98H101.893C101.845 48.516 101.661 49.044 101.341 49.564C101.021 50.076 100.577 50.54 100.009 50.956C99.4405 51.364 98.7485 51.688 97.9325 51.928C97.1245 52.168 96.2005 52.288 95.1605 52.288C93.7525 52.288 92.5245 52.008 91.4765 51.448C90.4285 50.88 89.6165 50.1 89.0405 49.108C88.4645 48.108 88.1765 46.956 88.1765 45.652C88.1765 44.332 88.4685 43.176 89.0525 42.184C89.6445 41.184 90.4645 40.408 91.5125 39.856C92.5685 39.296 93.7885 39.016 95.1725 39.016C96.5885 39.016 97.8125 39.3 98.8445 39.868C99.8765 40.428 100.673 41.216 101.233 42.232C101.793 43.24 102.073 44.416 102.073 45.76C102.073 45.96 102.069 46.152 102.061 46.336C102.053 46.52 102.041 46.656 102.025 46.744H90.1925ZM108.249 33.244V52H104.577V33.244H108.249ZM120.962 52H117.23V34.3H123.29C124.642 34.3 125.798 34.564 126.758 35.092C127.726 35.612 128.462 36.32 128.966 37.216C129.478 38.104 129.734 39.108 129.734 40.228C129.734 41.34 129.474 42.36 128.954 43.288C128.442 44.208 127.706 44.948 126.746 45.508C125.786 46.06 124.634 46.336 123.29 46.336H120.962V52ZM120.962 45.184L119.282 43.456H122.894C123.518 43.456 124.062 43.332 124.526 43.084C124.99 42.828 125.35 42.46 125.606 41.98C125.862 41.492 125.99 40.908 125.99 40.228C125.99 39.54 125.862 38.972 125.606 38.524C125.358 38.068 125.002 37.732 124.538 37.516C124.082 37.292 123.534 37.18 122.894 37.18H119.282L120.962 35.404V45.184ZM132.054 52V39.256H135.786V43.648L135.018 43.168C135.106 42.568 135.266 42.016 135.498 41.512C135.73 41.008 136.03 40.572 136.398 40.204C136.766 39.828 137.202 39.536 137.706 39.328C138.218 39.12 138.802 39.016 139.458 39.016C139.97 39.016 140.37 39.056 140.658 39.136C140.954 39.208 141.138 39.264 141.21 39.304L140.598 42.64C140.526 42.6 140.366 42.536 140.118 42.448C139.87 42.36 139.55 42.316 139.158 42.316C138.518 42.316 137.982 42.424 137.55 42.64C137.118 42.856 136.77 43.144 136.506 43.504C136.25 43.856 136.066 44.248 135.954 44.68C135.842 45.112 135.786 45.548 135.786 45.988V52H132.054ZM147.178 52.264C146.25 52.264 145.422 52.116 144.694 51.82C143.974 51.524 143.41 51.096 143.002 50.536C142.594 49.976 142.39 49.296 142.39 48.496C142.39 47.592 142.638 46.856 143.134 46.288C143.63 45.72 144.286 45.288 145.102 44.992C145.926 44.688 146.818 44.488 147.778 44.392C149.178 44.256 150.142 44.132 150.67 44.02C151.206 43.908 151.474 43.712 151.474 43.432C151.474 43.424 151.474 43.416 151.474 43.408C151.474 42.936 151.246 42.564 150.79 42.292C150.342 42.02 149.714 41.884 148.906 41.884C148.05 41.884 147.394 42.04 146.938 42.352C146.49 42.656 146.266 43.124 146.266 43.756H142.606C142.606 42.732 142.882 41.868 143.434 41.164C143.994 40.46 144.75 39.928 145.702 39.568C146.654 39.2 147.73 39.016 148.93 39.016C150.05 39.016 151.086 39.188 152.038 39.532C152.99 39.868 153.754 40.376 154.33 41.056C154.914 41.736 155.206 42.6 155.206 43.648C155.206 43.816 155.206 43.984 155.206 44.152C155.206 44.312 155.206 44.476 155.206 44.644V49.156C155.206 49.484 155.214 49.8 155.23 50.104C155.254 50.4 155.302 50.672 155.374 50.92C155.454 51.2 155.554 51.432 155.674 51.616C155.794 51.8 155.894 51.928 155.974 52H152.314C152.258 51.944 152.17 51.828 152.05 51.652C151.938 51.476 151.842 51.272 151.762 51.04C151.666 50.76 151.594 50.48 151.546 50.2C151.506 49.912 151.486 49.576 151.486 49.192L152.254 49.72C152.03 50.248 151.666 50.704 151.162 51.088C150.666 51.464 150.074 51.756 149.386 51.964C148.706 52.164 147.97 52.264 147.178 52.264ZM148.174 49.48C148.758 49.48 149.302 49.376 149.806 49.168C150.318 48.952 150.734 48.616 151.054 48.16C151.374 47.704 151.534 47.108 151.534 46.372V45.088L152.458 45.988C151.93 46.18 151.318 46.34 150.622 46.468C149.934 46.588 149.246 46.684 148.558 46.756C147.742 46.836 147.13 46.976 146.722 47.176C146.322 47.368 146.122 47.696 146.122 48.16C146.122 48.6 146.294 48.932 146.638 49.156C146.982 49.372 147.494 49.48 148.174 49.48ZM163.257 52.288C162.193 52.288 161.213 52.036 160.317 51.532C159.421 51.02 158.701 50.264 158.157 49.264C157.613 48.264 157.341 47.032 157.341 45.568C157.341 44.168 157.617 42.98 158.169 42.004C158.729 41.028 159.457 40.288 160.353 39.784C161.257 39.272 162.225 39.016 163.257 39.016C164.265 39.016 165.185 39.272 166.017 39.784C166.857 40.296 167.529 40.996 168.033 41.884C168.537 42.764 168.789 43.78 168.789 44.932C168.789 44.972 168.789 45.012 168.789 45.052C168.789 45.084 168.789 45.12 168.789 45.16L167.181 45.184C167.181 45.16 167.181 45.136 167.181 45.112C167.181 45.08 167.181 45.052 167.181 45.028C167.181 44.428 167.037 43.912 166.749 43.48C166.461 43.048 166.089 42.716 165.633 42.484C165.177 42.244 164.701 42.124 164.205 42.124C163.381 42.124 162.669 42.4 162.069 42.952C161.469 43.496 161.169 44.368 161.169 45.568C161.169 46.768 161.469 47.652 162.069 48.22C162.677 48.78 163.389 49.06 164.205 49.06C164.717 49.06 165.201 48.94 165.657 48.7C166.113 48.452 166.481 48.104 166.761 47.656C167.041 47.208 167.181 46.68 167.181 46.072L168.789 46.156C168.789 47.3 168.541 48.336 168.045 49.264C167.557 50.184 166.893 50.92 166.053 51.472C165.221 52.016 164.289 52.288 163.257 52.288ZM167.181 52V33.244H170.913V52H167.181ZM180.133 52.276C178.757 52.276 177.545 51.992 176.497 51.424C175.449 50.856 174.629 50.076 174.037 49.084C173.453 48.084 173.161 46.932 173.161 45.628C173.161 44.332 173.453 43.188 174.037 42.196C174.629 41.196 175.449 40.42 176.497 39.868C177.545 39.308 178.757 39.028 180.133 39.028C181.509 39.028 182.721 39.308 183.769 39.868C184.817 40.42 185.633 41.196 186.217 42.196C186.809 43.188 187.105 44.332 187.105 45.628C187.105 46.932 186.809 48.084 186.217 49.084C185.633 50.076 184.817 50.856 183.769 51.424C182.721 51.992 181.509 52.276 180.133 52.276ZM180.133 49.324C180.781 49.324 181.345 49.172 181.825 48.868C182.305 48.564 182.677 48.136 182.941 47.584C183.205 47.024 183.337 46.372 183.337 45.628C183.337 44.884 183.205 44.24 182.941 43.696C182.677 43.144 182.305 42.72 181.825 42.424C181.345 42.128 180.781 41.98 180.133 41.98C179.493 41.98 178.929 42.128 178.441 42.424C177.961 42.72 177.589 43.144 177.325 43.696C177.061 44.24 176.929 44.884 176.929 45.628C176.929 46.372 177.061 47.024 177.325 47.584C177.589 48.136 177.961 48.564 178.441 48.868C178.929 49.172 179.493 49.324 180.133 49.324Z" fill="white"/>
<path d="M34.808 83H33.269V69.725H36.995C38.021 69.725 38.873 69.917 39.551 70.301C40.229 70.679 40.736 71.189 41.072 71.831C41.408 72.473 41.576 73.187 41.576 73.973C41.576 74.759 41.402 75.485 41.054 76.151C40.712 76.817 40.199 77.354 39.515 77.762C38.837 78.164 37.997 78.365 36.995 78.365H34.808V83ZM34.808 77.798L34.115 77.015H36.806C37.526 77.015 38.123 76.889 38.597 76.637C39.077 76.379 39.434 76.022 39.668 75.566C39.908 75.11 40.028 74.579 40.028 73.973C40.028 73.361 39.914 72.839 39.686 72.407C39.458 71.975 39.107 71.645 38.633 71.417C38.159 71.189 37.55 71.075 36.806 71.075H34.115L34.808 70.202V77.798ZM43.7305 83V73.442H45.2605V76.376L44.7565 76.196C44.7925 75.842 44.8825 75.494 45.0265 75.152C45.1705 74.804 45.3685 74.492 45.6205 74.216C45.8785 73.934 46.1995 73.712 46.5835 73.55C46.9675 73.382 47.4175 73.298 47.9335 73.298C48.3175 73.298 48.6295 73.331 48.8695 73.397C49.1155 73.457 49.2685 73.505 49.3285 73.541L48.9325 75.044C48.8725 75.002 48.7495 74.948 48.5635 74.882C48.3835 74.816 48.1255 74.783 47.7895 74.783C47.2915 74.783 46.8775 74.873 46.5475 75.053C46.2235 75.233 45.9655 75.473 45.7735 75.773C45.5875 76.067 45.4555 76.388 45.3775 76.736C45.2995 77.084 45.2605 77.429 45.2605 77.771V83H43.7305ZM55.3239 83.171C54.3639 83.171 53.5149 82.958 52.7769 82.532C52.0449 82.1 51.4689 81.512 51.0489 80.768C50.6349 80.018 50.4279 79.166 50.4279 78.212C50.4279 77.258 50.6349 76.412 51.0489 75.674C51.4689 74.936 52.0449 74.357 52.7769 73.937C53.5149 73.517 54.3639 73.307 55.3239 73.307C56.2839 73.307 57.1299 73.517 57.8619 73.937C58.5999 74.357 59.1759 74.936 59.5899 75.674C60.0099 76.412 60.2199 77.258 60.2199 78.212C60.2199 79.166 60.0099 80.018 59.5899 80.768C59.1759 81.512 58.5999 82.1 57.8619 82.532C57.1299 82.958 56.2839 83.171 55.3239 83.171ZM55.3239 81.767C55.9839 81.767 56.5659 81.62 57.0699 81.326C57.5739 81.032 57.9669 80.618 58.2489 80.084C58.5369 79.55 58.6809 78.926 58.6809 78.212C58.6809 77.498 58.5369 76.88 58.2489 76.358C57.9669 75.83 57.5739 75.425 57.0699 75.143C56.5659 74.855 55.9839 74.711 55.3239 74.711C54.6699 74.711 54.0879 74.855 53.5779 75.143C53.0739 75.425 52.6779 75.83 52.3899 76.358C52.1079 76.88 51.9669 77.498 51.9669 78.212C51.9669 78.926 52.1079 79.55 52.3899 80.084C52.6779 80.618 53.0739 81.032 53.5779 81.326C54.0879 81.62 54.6699 81.767 55.3239 81.767ZM66.5514 83.18C65.7654 83.18 65.0454 82.991 64.3914 82.613C63.7374 82.229 63.2154 81.668 62.8254 80.93C62.4354 80.186 62.2404 79.28 62.2404 78.212C62.2404 77.162 62.4384 76.271 62.8344 75.539C63.2304 74.807 63.7554 74.252 64.4094 73.874C65.0634 73.49 65.7774 73.298 66.5514 73.298C67.2894 73.298 67.9794 73.475 68.6214 73.829C69.2694 74.177 69.7914 74.663 70.1874 75.287C70.5834 75.911 70.7814 76.634 70.7814 77.456C70.7814 77.474 70.7814 77.492 70.7814 77.51C70.7814 77.528 70.7814 77.546 70.7814 77.564L69.6834 77.609C69.6834 77.591 69.6834 77.573 69.6834 77.555C69.6834 77.531 69.6834 77.51 69.6834 77.492C69.6834 76.97 69.5454 76.499 69.2694 76.079C68.9994 75.659 68.6424 75.326 68.1984 75.08C67.7544 74.828 67.2774 74.702 66.7674 74.702C65.9154 74.702 65.2104 74.99 64.6524 75.566C64.0944 76.136 63.8154 77.018 63.8154 78.212C63.8154 79.4 64.0944 80.285 64.6524 80.867C65.2164 81.443 65.9214 81.731 66.7674 81.731C67.3014 81.731 67.7874 81.602 68.2254 81.344C68.6694 81.086 69.0234 80.741 69.2874 80.309C69.5514 79.871 69.6834 79.382 69.6834 78.842L70.7814 78.869C70.7814 79.685 70.5924 80.42 70.2144 81.074C69.8364 81.722 69.3264 82.235 68.6844 82.613C68.0484 82.991 67.3374 83.18 66.5514 83.18ZM69.6834 83V68.933H71.2224V83H69.6834ZM77.4402 83.171C76.7562 83.171 76.1862 83.054 75.7302 82.82C75.2742 82.58 74.9112 82.271 74.6412 81.893C74.3772 81.515 74.1882 81.107 74.0742 80.669C73.9662 80.225 73.9122 79.799 73.9122 79.391C73.9122 79.163 73.9122 78.929 73.9122 78.689C73.9122 78.443 73.9122 78.197 73.9122 77.951V73.442H75.4512V77.753C75.4512 77.975 75.4512 78.194 75.4512 78.41C75.4512 78.626 75.4512 78.83 75.4512 79.022C75.4512 79.508 75.5172 79.958 75.6492 80.372C75.7872 80.786 76.0242 81.122 76.3602 81.38C76.6962 81.632 77.1582 81.758 77.7462 81.758C78.2982 81.758 78.7812 81.593 79.1952 81.263C79.6092 80.927 79.9332 80.51 80.1672 80.012C80.4012 79.508 80.5182 79.007 80.5182 78.509L81.4092 78.878C81.4092 79.406 81.3162 79.925 81.1302 80.435C80.9442 80.939 80.6772 81.398 80.3292 81.812C79.9872 82.226 79.5702 82.556 79.0782 82.802C78.5922 83.048 78.0462 83.171 77.4402 83.171ZM80.5182 83V73.442H82.0482V83H80.5182ZM89.2411 83.18C88.3291 83.18 87.5011 82.982 86.7571 82.586C86.0131 82.184 85.4221 81.611 84.9841 80.867C84.5521 80.123 84.3361 79.238 84.3361 78.212C84.3361 77.186 84.5521 76.307 84.9841 75.575C85.4221 74.837 86.0131 74.273 86.7571 73.883C87.5011 73.493 88.3291 73.298 89.2411 73.298C89.9371 73.298 90.5581 73.406 91.1041 73.622C91.6501 73.832 92.1121 74.114 92.4901 74.468C92.8681 74.822 93.1561 75.212 93.3541 75.638C93.5581 76.058 93.6601 76.478 93.6601 76.898C93.6601 76.904 93.6601 76.913 93.6601 76.925C93.6601 76.937 93.6601 76.949 93.6601 76.961H92.1391C92.1391 76.931 92.1361 76.898 92.1301 76.862C92.1241 76.82 92.1181 76.778 92.1121 76.736C92.0641 76.334 91.9111 75.983 91.6531 75.683C91.3951 75.377 91.0591 75.137 90.6451 74.963C90.2311 74.789 89.7601 74.702 89.2321 74.702C88.6381 74.702 88.0861 74.831 87.5761 75.089C87.0721 75.341 86.6641 75.728 86.3521 76.25C86.0461 76.766 85.8931 77.42 85.8931 78.212C85.8931 78.998 86.0461 79.655 86.3521 80.183C86.6581 80.711 87.0631 81.11 87.5671 81.38C88.0771 81.644 88.6321 81.776 89.2321 81.776C89.8801 81.776 90.4141 81.674 90.8341 81.47C91.2541 81.266 91.5691 80.996 91.7791 80.66C91.9951 80.318 92.1151 79.952 92.1391 79.562H93.6601C93.6601 79.994 93.5641 80.426 93.3721 80.858C93.1801 81.284 92.8981 81.674 92.5261 82.028C92.1541 82.376 91.6921 82.655 91.1401 82.865C90.5941 83.075 89.9611 83.18 89.2411 83.18ZM99.6297 83.144C99.3357 83.144 99.0477 83.111 98.7657 83.045C98.4837 82.979 98.2287 82.862 98.0007 82.694C97.7787 82.52 97.6017 82.277 97.4697 81.965C97.3377 81.647 97.2717 81.239 97.2717 80.741C97.2717 80.615 97.2717 80.486 97.2717 80.354C97.2717 80.216 97.2717 80.072 97.2717 79.922V74.792H94.9407V73.442H96.4347C96.6387 73.442 96.7977 73.436 96.9117 73.424C97.0257 73.406 97.1067 73.367 97.1547 73.307C97.2087 73.241 97.2417 73.142 97.2537 73.01C97.2657 72.872 97.2717 72.683 97.2717 72.443V70.274H98.8107V73.442H101.799V74.792H98.8107V79.427C98.8107 79.559 98.8107 79.688 98.8107 79.814C98.8107 79.94 98.8107 80.057 98.8107 80.165C98.8107 80.675 98.8707 81.074 98.9907 81.362C99.1167 81.65 99.3957 81.794 99.8277 81.794C100.002 81.794 100.167 81.779 100.323 81.749C100.479 81.719 100.596 81.689 100.674 81.659V82.991C100.572 83.027 100.428 83.06 100.242 83.09C100.062 83.126 99.8577 83.144 99.6297 83.144ZM108.152 83V69.725H111.482C112.358 69.725 113.147 69.878 113.849 70.184C114.557 70.49 115.16 70.931 115.658 71.507C116.162 72.077 116.549 72.773 116.819 73.595C117.089 74.411 117.224 75.332 117.224 76.358C117.224 77.384 117.089 78.308 116.819 79.13C116.549 79.946 116.162 80.642 115.658 81.218C115.16 81.794 114.557 82.235 113.849 82.541C113.147 82.847 112.358 83 111.482 83H108.152ZM109.7 82.523L109.007 81.65H111.302C112.154 81.65 112.907 81.437 113.561 81.011C114.221 80.579 114.737 79.967 115.109 79.175C115.481 78.383 115.667 77.444 115.667 76.358C115.667 75.266 115.481 74.327 115.109 73.541C114.737 72.749 114.221 72.14 113.561 71.714C112.907 71.288 112.154 71.075 111.302 71.075H109.007L109.7 70.202V82.523ZM120.005 78.833V77.465H127.394L127.124 77.915C127.124 77.879 127.124 77.846 127.124 77.816C127.124 77.78 127.124 77.747 127.124 77.717C127.124 77.165 127.007 76.661 126.773 76.205C126.545 75.743 126.203 75.374 125.747 75.098C125.291 74.822 124.727 74.684 124.055 74.684C123.377 74.684 122.78 74.828 122.264 75.116C121.748 75.404 121.346 75.812 121.058 76.34C120.77 76.862 120.626 77.486 120.626 78.212C120.626 78.95 120.764 79.586 121.04 80.12C121.322 80.654 121.721 81.065 122.237 81.353C122.753 81.641 123.365 81.785 124.073 81.785C124.577 81.785 125.015 81.734 125.387 81.632C125.759 81.524 126.065 81.383 126.305 81.209C126.551 81.029 126.737 80.834 126.863 80.624C126.989 80.414 127.064 80.204 127.088 79.994H128.618C128.588 80.378 128.468 80.759 128.258 81.137C128.048 81.515 127.751 81.86 127.367 82.172C126.983 82.478 126.512 82.724 125.954 82.91C125.396 83.096 124.754 83.189 124.028 83.189C123.068 83.189 122.222 82.979 121.49 82.559C120.758 82.139 120.182 81.557 119.762 80.813C119.348 80.069 119.141 79.214 119.141 78.248C119.141 77.27 119.351 76.412 119.771 75.674C120.191 74.93 120.77 74.348 121.508 73.928C122.246 73.508 123.089 73.298 124.037 73.298C125.003 73.298 125.84 73.508 126.548 73.928C127.256 74.348 127.802 74.924 128.186 75.656C128.57 76.382 128.762 77.21 128.762 78.14C128.762 78.236 128.759 78.362 128.753 78.518C128.747 78.674 128.738 78.779 128.726 78.833H120.005ZM134.801 83.18C134.225 83.18 133.691 83.12 133.199 83C132.713 82.874 132.287 82.694 131.921 82.46C131.561 82.22 131.279 81.926 131.075 81.578C130.877 81.23 130.778 80.831 130.778 80.381C130.778 80.333 130.778 80.285 130.778 80.237C130.778 80.183 130.778 80.138 130.778 80.102H132.317C132.317 80.138 132.317 80.168 132.317 80.192C132.317 80.216 132.317 80.252 132.317 80.3C132.317 80.786 132.542 81.158 132.992 81.416C133.442 81.668 134.057 81.794 134.837 81.794C135.317 81.794 135.746 81.746 136.124 81.65C136.502 81.554 136.799 81.407 137.015 81.209C137.237 81.011 137.348 80.762 137.348 80.462C137.348 79.964 137.114 79.61 136.646 79.4C136.184 79.184 135.491 78.998 134.567 78.842C134.081 78.758 133.619 78.65 133.181 78.518C132.743 78.38 132.353 78.203 132.011 77.987C131.675 77.771 131.408 77.504 131.21 77.186C131.018 76.862 130.922 76.475 130.922 76.025C130.922 75.443 131.093 74.951 131.435 74.549C131.783 74.141 132.251 73.832 132.839 73.622C133.427 73.406 134.081 73.298 134.801 73.298C135.497 73.298 136.139 73.409 136.727 73.631C137.315 73.853 137.786 74.177 138.14 74.603C138.5 75.023 138.68 75.542 138.68 76.16C138.68 76.184 138.68 76.214 138.68 76.25C138.68 76.28 138.68 76.31 138.68 76.34H137.15C137.15 76.31 137.15 76.286 137.15 76.268C137.15 76.25 137.15 76.229 137.15 76.205C137.15 75.857 137.039 75.572 136.817 75.35C136.595 75.122 136.307 74.954 135.953 74.846C135.599 74.732 135.221 74.675 134.819 74.675C134.441 74.675 134.069 74.717 133.703 74.801C133.337 74.879 133.034 75.011 132.794 75.197C132.554 75.383 132.434 75.638 132.434 75.962C132.434 76.286 132.545 76.547 132.767 76.745C132.995 76.937 133.313 77.096 133.721 77.222C134.135 77.342 134.621 77.453 135.179 77.555C135.677 77.645 136.148 77.759 136.592 77.897C137.036 78.029 137.426 78.2 137.762 78.41C138.104 78.62 138.371 78.887 138.563 79.211C138.761 79.529 138.86 79.919 138.86 80.381C138.86 80.849 138.752 81.257 138.536 81.605C138.326 81.953 138.032 82.244 137.654 82.478C137.282 82.712 136.85 82.886 136.358 83C135.872 83.12 135.353 83.18 134.801 83.18ZM141.326 83V73.442H142.838V83H141.326ZM142.091 71.246C141.809 71.246 141.563 71.168 141.353 71.012C141.149 70.85 141.047 70.631 141.047 70.355C141.047 70.085 141.149 69.872 141.353 69.716C141.563 69.554 141.809 69.473 142.091 69.473C142.373 69.473 142.616 69.554 142.82 69.716C143.024 69.872 143.126 70.085 143.126 70.355C143.126 70.631 143.024 70.85 142.82 71.012C142.616 71.168 142.373 71.246 142.091 71.246ZM151.786 82.415C152.302 82.457 152.755 82.553 153.145 82.703C153.541 82.847 153.85 83.06 154.072 83.342C154.294 83.63 154.405 84.005 154.405 84.467C154.405 84.977 154.231 85.427 153.883 85.817C153.535 86.213 153.007 86.522 152.299 86.744C151.591 86.966 150.7 87.077 149.626 87.077C148.108 87.077 146.962 86.855 146.188 86.411C145.414 85.973 145.027 85.373 145.027 84.611C145.027 84.371 145.054 84.158 145.108 83.972C145.168 83.792 145.234 83.645 145.306 83.531L146.764 83.747C146.716 83.813 146.668 83.912 146.62 84.044C146.578 84.182 146.557 84.341 146.557 84.521C146.557 85.001 146.83 85.337 147.376 85.529C147.922 85.727 148.696 85.826 149.698 85.826C150.448 85.826 151.063 85.775 151.543 85.673C152.023 85.571 152.38 85.424 152.614 85.232C152.848 85.04 152.965 84.815 152.965 84.557C152.965 84.167 152.8 83.924 152.47 83.828C152.146 83.738 151.744 83.675 151.264 83.639L147.628 83.369C147.022 83.321 146.527 83.135 146.143 82.811C145.765 82.481 145.576 82.082 145.576 81.614C145.576 81.326 145.645 81.053 145.783 80.795C145.927 80.537 146.092 80.321 146.278 80.147C146.47 79.967 146.641 79.859 146.791 79.823L147.997 80.372C147.847 80.396 147.661 80.501 147.439 80.687C147.223 80.867 147.115 81.08 147.115 81.326C147.115 81.548 147.202 81.731 147.376 81.875C147.55 82.013 147.895 82.103 148.411 82.145L151.786 82.415ZM153.109 73.442H154.549L153.955 77.204C153.847 77.906 153.622 78.542 153.28 79.112C152.938 79.676 152.47 80.126 151.876 80.462C151.288 80.792 150.559 80.957 149.689 80.957C148.783 80.957 148.009 80.792 147.367 80.462C146.725 80.132 146.233 79.682 145.891 79.112C145.549 78.536 145.378 77.888 145.378 77.168C145.378 76.436 145.555 75.779 145.909 75.197C146.269 74.609 146.767 74.147 147.403 73.811C148.039 73.469 148.768 73.298 149.59 73.298C150.328 73.298 150.973 73.427 151.525 73.685C152.077 73.937 152.512 74.255 152.83 74.639C153.154 75.023 153.334 75.41 153.37 75.8L152.794 75.836L153.109 73.442ZM149.68 79.589C150.262 79.589 150.76 79.493 151.174 79.301C151.594 79.109 151.915 78.83 152.137 78.464C152.365 78.098 152.479 77.654 152.479 77.132C152.479 76.628 152.365 76.193 152.137 75.827C151.915 75.455 151.594 75.17 151.174 74.972C150.76 74.768 150.265 74.666 149.689 74.666C149.137 74.666 148.648 74.771 148.222 74.981C147.802 75.185 147.472 75.473 147.232 75.845C146.998 76.217 146.881 76.655 146.881 77.159C146.881 77.669 146.992 78.107 147.214 78.473C147.442 78.833 147.763 79.109 148.177 79.301C148.597 79.493 149.098 79.589 149.68 79.589ZM163.492 83V78.419C163.492 78.143 163.492 77.918 163.492 77.744C163.492 77.564 163.492 77.393 163.492 77.231C163.492 76.733 163.408 76.298 163.24 75.926C163.072 75.554 162.808 75.266 162.448 75.062C162.088 74.858 161.617 74.756 161.035 74.756C160.525 74.756 160.051 74.888 159.613 75.152C159.181 75.41 158.833 75.761 158.569 76.205C158.311 76.643 158.182 77.135 158.182 77.681L157.309 77.348C157.309 76.598 157.492 75.917 157.858 75.305C158.23 74.693 158.722 74.207 159.334 73.847C159.952 73.481 160.624 73.298 161.35 73.298C162.088 73.298 162.733 73.439 163.285 73.721C163.837 74.003 164.263 74.408 164.563 74.936C164.869 75.458 165.022 76.088 165.022 76.826C165.022 77.09 165.022 77.378 165.022 77.69C165.022 78.002 165.022 78.293 165.022 78.563V83H163.492ZM156.652 83V73.442H158.182V83H156.652ZM168.186 78.833V77.465H175.575L175.305 77.915C175.305 77.879 175.305 77.846 175.305 77.816C175.305 77.78 175.305 77.747 175.305 77.717C175.305 77.165 175.188 76.661 174.954 76.205C174.726 75.743 174.384 75.374 173.928 75.098C173.472 74.822 172.908 74.684 172.236 74.684C171.558 74.684 170.961 74.828 170.445 75.116C169.929 75.404 169.527 75.812 169.239 76.34C168.951 76.862 168.807 77.486 168.807 78.212C168.807 78.95 168.945 79.586 169.221 80.12C169.503 80.654 169.902 81.065 170.418 81.353C170.934 81.641 171.546 81.785 172.254 81.785C172.758 81.785 173.196 81.734 173.568 81.632C173.94 81.524 174.246 81.383 174.486 81.209C174.732 81.029 174.918 80.834 175.044 80.624C175.17 80.414 175.245 80.204 175.269 79.994H176.799C176.769 80.378 176.649 80.759 176.439 81.137C176.229 81.515 175.932 81.86 175.548 82.172C175.164 82.478 174.693 82.724 174.135 82.91C173.577 83.096 172.935 83.189 172.209 83.189C171.249 83.189 170.403 82.979 169.671 82.559C168.939 82.139 168.363 81.557 167.943 80.813C167.529 80.069 167.322 79.214 167.322 78.248C167.322 77.27 167.532 76.412 167.952 75.674C168.372 74.93 168.951 74.348 169.689 73.928C170.427 73.508 171.27 73.298 172.218 73.298C173.184 73.298 174.021 73.508 174.729 73.928C175.437 74.348 175.983 74.924 176.367 75.656C176.751 76.382 176.943 77.21 176.943 78.14C176.943 78.236 176.94 78.362 176.934 78.518C176.928 78.674 176.919 78.779 176.907 78.833H168.186ZM179.328 83V73.442H180.858V76.376L180.354 76.196C180.39 75.842 180.48 75.494 180.624 75.152C180.768 74.804 180.966 74.492 181.218 74.216C181.476 73.934 181.797 73.712 182.181 73.55C182.565 73.382 183.015 73.298 183.531 73.298C183.915 73.298 184.227 73.331 184.467 73.397C184.713 73.457 184.866 73.505 184.926 73.541L184.53 75.044C184.47 75.002 184.347 74.948 184.161 74.882C183.981 74.816 183.723 74.783 183.387 74.783C182.889 74.783 182.475 74.873 182.145 75.053C181.821 75.233 181.563 75.473 181.371 75.773C181.185 76.067 181.053 76.388 180.975 76.736C180.897 77.084 180.858 77.429 180.858 77.771V83H179.328Z" fill="white"/>
<defs>
<linearGradient id="paint0_linear_974_301" x1="-5.45021e-06" y1="59.5014" x2="861" y2="59.5013" gradientUnits="userSpaceOnUse">
<stop stop-color="#021826"/>
<stop offset="1" stop-color="#00080D"/>
</linearGradient>
</defs>
</svg>
